<?xml version="1.0" encoding="UTF-8"?>
<svg version="1.1" xmlns="http://www.w3.org/2000/svg" width="1853" height="2049">
<path d="M0 0 C2.10011092 -0.00959722 4.19919486 -0.04061788 6.29907227 -0.07226562 C37.34977903 -0.31503126 62.4975487 14.88303529 88.69165039 29.82617188 C95.12515461 33.49303518 101.59749213 37.08835529 108.07446289 40.67773438 C122.00060321 48.40061031 135.89423729 56.18068576 149.78344727 63.96972656 C152.88021663 65.70615037 155.97723951 67.44212052 159.07446289 69.17773438 C160.09926758 69.75201172 161.12407227 70.32628906 162.17993164 70.91796875 C169.88430443 75.2318404 177.60268292 79.52011725 185.32446289 83.80273438 C193.63645921 88.41321161 201.93073339 93.05260388 210.19946289 97.74023438 C221.84413552 104.34063825 233.54449979 110.83905401 245.2512207 117.32861328 C260.6120827 125.84429931 275.96277798 134.37745481 291.28149414 142.96875 C298.9509251 147.26769333 306.63546919 151.53889743 314.32446289 155.80273438 C322.59612429 160.39019567 330.84821396 165.00934895 339.07446289 169.67773438 C347.74660883 174.59834378 356.46334058 179.43454084 365.19946289 184.24023438 C374.8700869 189.55999223 384.50690053 194.93450357 394.10668945 200.38134766 C404.78282663 206.43338989 415.5179486 212.37868025 426.2512207 218.32861328 C441.61351763 226.8450948 456.96517758 235.37986034 472.28588867 243.97094727 C479.91349126 248.24593568 487.55385843 252.49753624 495.19946289 256.74023438 C504.90769523 262.12752578 514.60126514 267.54023235 524.28540039 272.97070312 C531.91319247 277.24572513 539.55369944 281.49744802 547.19946289 285.74023438 C556.90626381 291.12673146 566.59865517 296.53819683 576.28100586 301.96850586 C583.95062675 306.26748249 591.63533533 310.53876363 599.32446289 314.80273438 C607.63648639 319.41316199 615.93073389 324.05260416 624.19946289 328.74023438 C635.84413552 335.34063825 647.54449979 341.83905401 659.2512207 348.32861328 C674.6120827 356.84429931 689.96277798 365.37745481 705.28149414 373.96875 C712.95092533 378.26769346 720.63549433 382.53885181 728.32446289 386.80273438 C737.57542924 391.93396514 746.79852157 397.11139818 756.0012207 402.32861328 C764.47820426 407.12853343 772.99267797 411.85965365 781.51196289 416.58398438 C790.11456014 421.35558444 798.70054112 426.15613229 807.28051758 430.96826172 C814.9503293 435.26727216 822.63530218 439.53844716 830.32446289 443.80273438 C841.62561695 450.07512587 852.90730165 456.3795097 864.13354492 462.78515625 C866.55171173 464.1564478 868.9811067 465.50523156 871.41430664 466.84960938 C897.57905748 481.48178307 918.71326629 505.02596074 927.01196289 534.11523438 C929.18092916 541.81468722 930.82321289 548.99133456 930.82826406 557.04331708 C930.83003907 557.70706654 930.83181408 558.37081601 930.83364287 559.05467909 C930.83837749 561.2809764 930.83601117 563.50720876 930.83368397 565.73350906 C930.8356374 567.35180113 930.83802644 568.97009271 930.84081194 570.58838356 C930.84721613 575.05378559 930.84737322 579.51916964 930.84653453 583.98457539 C930.84670395 588.83584186 930.85260917 593.68710187 930.85777539 598.53836513 C930.86710714 608.16869955 930.87102441 617.79902938 930.87329436 627.42936777 C930.87625495 638.96142718 930.88495155 650.49348049 930.89370864 662.0255367 C930.91456038 689.90177584 930.92502415 717.77801605 930.93383824 745.65426117 C930.93804388 758.84049093 930.943266 772.02672023 930.94852277 785.21294961 C930.96613355 829.63855329 930.9811861 874.06415724 930.98849301 918.48976391 C930.98907698 922.03105737 930.98967424 925.57235083 930.99027063 929.11364429 C930.99038875 929.8161186 930.99050687 930.51859291 930.99062857 931.24235432 C930.99182594 938.35930578 930.9930347 945.47625723 930.9942611 952.59320868 C930.99450633 954.02016903 930.99475019 955.44712937 930.99499267 956.87408972 C931.0027801 1002.68942192 931.02515794 1048.50472849 931.05766909 1094.32004948 C931.08102167 1127.24002114 931.10256985 1160.1599877 931.10967541 1193.0799675 C931.10982243 1193.75730625 931.10996945 1194.43464501 931.11012093 1195.13250918 C931.11330611 1210.00357122 931.11535675 1224.87463321 931.11634847 1239.74569555 C931.1167632 1245.72964126 931.11731829 1251.71358696 931.11791039 1257.69753265 C931.11803358 1259.00666669 931.11815677 1260.31580073 931.11828369 1261.6646055 C931.12061578 1282.73261287 931.13627628 1303.80059017 931.15675223 1324.86858682 C931.17700871 1346.04681757 931.18248836 1367.2250122 931.1729816 1388.40325084 C931.1677659 1400.98373261 931.17364747 1413.56409415 931.19551627 1426.14455861 C931.20902776 1434.55311321 931.2079442 1442.96158509 931.19511431 1451.37014052 C931.1882201 1456.15792238 931.18753986 1460.94547444 931.2046744 1465.73323575 C931.22016955 1470.09863596 931.21686147 1474.4636234 931.19926412 1478.82901196 C931.19614352 1480.38902433 931.19955929 1481.94906902 931.21075587 1483.50904433 C931.3999106 1511.72717318 920.78283518 1537.05265292 901.34887695 1557.56884766 C890.24979331 1568.81578765 876.79536804 1576.01027212 862.99438477 1583.45361328 C857.65667485 1586.34790501 852.36743228 1589.32766069 847.07446289 1592.30273438 C844.9885754 1593.47079243 842.90263819 1594.63876171 840.81665039 1595.80664062 C834.93637271 1599.10394913 829.06651806 1602.41946905 823.19946289 1605.74023438 C810.00302115 1613.20944762 796.76814568 1620.60959838 783.53344727 1628.01074219 C772.40975321 1634.23217824 761.29133884 1640.46220971 750.19946289 1646.74023438 C739.10473585 1653.01987276 727.98332896 1659.25124136 716.85668945 1665.47412109 C711.6365258 1668.39421573 706.41805516 1671.3173327 701.19946289 1674.24023438 C694.92687441 1677.7534729 688.6539217 1681.26605187 682.37915039 1684.77539062 C672.30742167 1690.4095755 662.24284946 1696.05565686 652.19946289 1701.74023438 C641.10473585 1708.01987276 629.98332896 1714.25124136 618.85668945 1720.47412109 C613.6365258 1723.39421573 608.41805516 1726.3173327 603.19946289 1729.24023438 C596.92687441 1732.7534729 590.6539217 1736.26605187 584.37915039 1739.77539062 C574.30742167 1745.4095755 564.24284946 1751.05565686 554.19946289 1756.74023438 C541.00302115 1764.20944762 527.76814568 1771.60959838 514.53344727 1779.01074219 C503.40975321 1785.23217824 492.29133884 1791.46220971 481.19946289 1797.74023438 C470.10473585 1804.01987276 458.98332896 1810.25124136 447.85668945 1816.47412109 C442.6365258 1819.39421573 437.41805516 1822.3173327 432.19946289 1825.24023438 C425.92687441 1828.7534729 419.6539217 1832.26605187 413.37915039 1835.77539062 C403.30742167 1841.4095755 393.24284946 1847.05565686 383.19946289 1852.74023438 C372.10473585 1859.01987276 360.98332896 1865.25124136 349.85668945 1871.47412109 C344.6365258 1874.39421573 339.41805516 1877.3173327 334.19946289 1880.24023438 C327.92687441 1883.7534729 321.6539217 1887.26605187 315.37915039 1890.77539062 C305.30742167 1896.4095755 295.24284946 1902.05565686 285.19946289 1907.74023438 C274.10473585 1914.01987276 262.98332896 1920.25124136 251.85668945 1926.47412109 C246.6365258 1929.39421573 241.41805516 1932.3173327 236.19946289 1935.24023438 C229.92687441 1938.7534729 223.6539217 1942.26605187 217.37915039 1945.77539062 C207.30742167 1951.4095755 197.24284946 1957.05565686 187.19946289 1962.74023438 C174.00302115 1970.20944762 160.76814568 1977.60959838 147.53344727 1985.01074219 C136.40975321 1991.23217824 125.29133884 1997.46220971 114.19946289 2003.74023438 C105.21329148 2008.82642593 96.21547423 2013.89135416 87.19799805 2018.921875 C81.81187083 2021.92785174 76.44009572 2024.95552019 71.09008789 2028.02539062 C40.28258777 2045.64573035 10.31754905 2054.08713009 -24.92553711 2045.61523438 C-39.47105386 2041.32054516 -52.52304903 2034.19117202 -65.55444336 2026.57617188 C-71.87342084 2022.88559784 -78.27138031 2019.34281624 -84.67553711 2015.80273438 C-94.0566299 2010.60693036 -103.41160144 2005.36836228 -112.74194336 2000.08203125 C-122.85544005 1994.35384744 -132.99904402 1988.67980824 -143.14331055 1983.00634766 C-149.40382618 1979.50429305 -155.66202323 1975.99809684 -161.9206543 1972.49267578 C-167.15328759 1969.56210652 -172.38647933 1966.63254394 -177.62084961 1963.70507812 C-188.64224232 1957.53964557 -199.6509903 1951.35289468 -210.64135742 1945.13232422 C-221.84003225 1938.79739133 -233.07091736 1932.52009267 -244.30053711 1926.24023438 C-257.42966681 1918.89812699 -270.55019617 1911.54194849 -283.64135742 1904.13232422 C-293.79046386 1898.39111741 -303.96639469 1892.69806827 -314.14331055 1887.00634766 C-320.40382618 1883.50429305 -326.66202323 1879.99809684 -332.9206543 1876.49267578 C-338.15328759 1873.56210652 -343.38647933 1870.63254394 -348.62084961 1867.70507812 C-359.64224232 1861.53964557 -370.6509903 1855.35289468 -381.64135742 1849.13232422 C-391.79046386 1843.39111741 -401.96639469 1837.69806827 -412.14331055 1832.00634766 C-418.40382618 1828.50429305 -424.66202323 1824.99809684 -430.9206543 1821.49267578 C-436.15328759 1818.56210652 -441.38647933 1815.63254394 -446.62084961 1812.70507812 C-457.64224232 1806.53964557 -468.6509903 1800.35289468 -479.64135742 1794.13232422 C-489.79046386 1788.39111741 -499.96639469 1782.69806827 -510.14331055 1777.00634766 C-516.40382618 1773.50429305 -522.66202323 1769.99809684 -528.9206543 1766.49267578 C-534.15328759 1763.56210652 -539.38647933 1760.63254394 -544.62084961 1757.70507812 C-555.64224232 1751.53964557 -566.6509903 1745.35289468 -577.64135742 1739.13232422 C-588.84003225 1732.79739133 -600.07091736 1726.52009267 -611.30053711 1720.24023438 C-624.42966681 1712.89812699 -637.55019617 1705.54194849 -650.64135742 1698.13232422 C-660.79046386 1692.39111741 -670.96639469 1686.69806827 -681.14331055 1681.00634766 C-687.40382618 1677.50429305 -693.66202323 1673.99809684 -699.9206543 1670.49267578 C-705.15328759 1667.56210652 -710.38647933 1664.63254394 -715.62084961 1661.70507812 C-726.64224232 1655.53964557 -737.6509903 1649.35289468 -748.64135742 1643.13232422 C-758.79046386 1637.39111741 -768.96639469 1631.69806827 -779.14331055 1626.00634766 C-785.40382618 1622.50429305 -791.66202323 1618.99809684 -797.9206543 1615.49267578 C-803.15328759 1612.56210652 -808.38647933 1609.63254394 -813.62084961 1606.70507812 C-825.66439009 1599.96807133 -837.70133297 1593.21980802 -849.70288086 1586.40820312 C-853.47652721 1584.26701019 -857.26123824 1582.1473495 -861.05444336 1580.04101562 C-870.03247358 1575.0305473 -878.62796069 1570.16115359 -886.30053711 1563.24023438 C-887.11135742 1562.56992188 -887.92217773 1561.89960937 -888.75756836 1561.20898438 C-906.87215576 1545.84914989 -919.03641483 1522.73585908 -922.30053711 1499.24023438 C-922.58657475 1493.88421344 -922.57312548 1488.53539926 -922.55780602 1483.17388821 C-922.56050194 1481.54210333 -922.56407121 1479.91031971 -922.56843048 1478.27853844 C-922.5778716 1473.7943102 -922.5748933 1469.31016338 -922.56987494 1464.82593119 C-922.56660541 1459.94733663 -922.57489327 1455.06875937 -922.58169329 1450.19017035 C-922.59199867 1441.63950864 -922.59483615 1433.08886958 -922.59278107 1424.53820229 C-922.58973248 1411.82276545 -922.59805194 1399.1073537 -922.60853032 1386.39192174 C-922.62788026 1362.36057221 -922.63349892 1338.3292312 -922.63464443 1314.2978748 C-922.63556327 1295.73990316 -922.63967863 1277.18193486 -922.64604568 1258.62396431 C-922.64784076 1253.28342249 -922.64962059 1247.94288067 -922.65139544 1242.60233885 C-922.65161662 1241.93881621 -922.6518378 1241.27529356 -922.65206568 1240.59166417 C-922.66471267 1202.57191525 -922.67296404 1164.55216747 -922.67204857 1126.53241634 C-922.67201701 1125.10981336 -922.67198554 1123.68721038 -922.67195415 1122.26460739 C-922.67180739 1115.84181372 -922.67163105 1109.41902005 -922.67144638 1102.99622638 C-922.67136414 1100.13219886 -922.67128384 1097.26817133 -922.67120376 1094.4041438 C-922.67116297 1092.97064682 -922.67112093 1091.53714984 -922.67107764 1090.10365285 C-922.66971736 1044.78206057 -922.68434852 999.46049954 -922.7121582 954.13891602 C-922.71916043 942.72116321 -922.72609943 931.30341037 -922.732687 919.88565731 C-922.73309274 919.18259051 -922.73349849 918.4795237 -922.73391654 917.75515184 C-922.74634997 896.07977997 -922.75387833 874.40441067 -922.75640297 852.72903538 C-922.75648287 852.0483319 -922.75656277 851.36762842 -922.7566451 850.66629756 C-922.7583518 835.72185935 -922.75887399 820.77742131 -922.75830434 805.83298302 C-922.75808736 799.81972695 -922.75799286 793.80647087 -922.75792313 787.7932148 C-922.75789982 786.47768358 -922.75787651 785.16215237 -922.75785249 783.80675658 C-922.75779094 762.63463242 -922.77056379 741.46253466 -922.78778766 720.29041836 C-922.80474007 699.01187196 -922.80672103 677.73336419 -922.79356901 656.45481478 C-922.78617721 643.81411667 -922.78984479 631.17353586 -922.80945369 618.53285017 C-922.82145018 610.08557115 -922.81886624 601.63837712 -922.8045127 593.191102 C-922.79674699 588.38045659 -922.79520583 583.57003825 -922.8114274 578.75940882 C-922.82608366 574.37447804 -922.82199803 569.98996146 -922.80357967 565.6050485 C-922.80016471 564.03685623 -922.8033023 562.46863072 -922.81418208 560.90047247 C-922.99728078 532.59116018 -911.95041207 507.47409751 -892.30053711 487.24023438 C-881.29227076 476.55824874 -867.7711262 469.37662951 -854.42553711 462.05273438 C-852.04183711 460.73793284 -849.65945882 459.4207447 -847.27709961 458.10351562 C-846.68483582 457.7763858 -846.09257202 457.44925598 -845.48236084 457.11221313 C-839.90013384 454.02612345 -834.34776001 450.88867137 -828.80053711 447.74023438 C-820.49193495 443.0284454 -812.15459181 438.3709397 -803.80053711 433.74023438 C-794.4620791 428.56329365 -785.14863535 423.34515015 -775.85864258 418.08178711 C-765.74535394 412.35360503 -755.60187127 406.67971935 -745.45776367 401.00634766 C-740.2376 398.08625301 -735.01915032 395.16309871 -729.80053711 392.24023438 C-727.7172121 391.07355284 -725.63387877 389.90688618 -723.55053711 388.74023438 C-722.00366211 387.87398438 -722.00366211 387.87398438 -720.42553711 386.99023438 C-617.30053711 329.24023438 -514.17553711 271.49023437 -111.05053711 45.74023438 C-109.50281616 44.87350098 -109.50281616 44.87350098 -107.92382812 43.98925781 C-105.84621362 42.82580668 -103.768577 41.66239505 -101.69091797 40.49902344 C-95.31561978 36.92913644 -88.94113482 33.35780312 -82.56738281 29.78515625 C-79.42225026 28.02340276 -76.27550393 26.26455743 -73.12866211 24.50585938 C-69.48480677 22.4682555 -65.84915043 20.41751172 -62.22241211 18.34960938 C-42.24677149 7.00070883 -23.19603984 0.0637911 0 0 Z " fill="#00589B" transform="translate(922.300537109375,-0.240234375)"/>
<path d="M0 0 C3.13308265 0.01089868 6.26612309 0.01041686 9.39922142 0.0100069 C31.95440864 0.0106216 54.40283206 0.29758285 76.83361816 2.88311768 C77.58365112 2.96798431 78.33368408 3.05285095 79.10644531 3.14028931 C121.20697359 7.94510958 164.4282991 15.65545576 204.45080566 29.73858643 C207.83355141 30.92529713 211.24738312 31.96737254 214.68127441 32.99639893 C222.65601008 35.43395314 230.46018062 38.28334586 238.27111816 41.19561768 C239.03317566 41.47940277 239.79523315 41.76318787 240.5803833 42.05557251 C312.82488381 69.03765517 379.41409404 107.92270326 438.70861816 157.19561768 C439.21747559 157.61810791 439.72633301 158.04059814 440.25061035 158.47589111 C447.69857303 164.67422601 454.92919373 171.05771809 462.02526855 177.65582275 C463.2657634 178.7905292 464.51961528 179.91067499 465.78063965 181.02252197 C472.94598739 187.35936947 479.71782519 194.0520686 486.46862793 200.82525635 C488.39971363 202.76172317 490.33611699 204.69275724 492.27307129 206.62335205 C498.29946771 212.64650535 504.19791079 218.69106259 509.70861816 225.19561768 C511.32829633 226.97131988 512.95273534 228.74270075 514.58361816 230.50811768 C519.50480164 235.91031908 524.12363469 241.50791666 528.70861816 247.19561768 C529.71795911 248.42566784 530.72844415 249.65477978 531.73986816 250.88311768 C550.37701538 273.56449213 567.26410945 297.52750274 582.77111816 322.44561768 C583.63047974 323.82281982 583.63047974 323.82281982 584.50720215 325.22784424 C585.039021 326.08861572 585.57083984 326.94938721 586.11877441 327.83624268 C586.59451904 328.60484619 587.07026367 329.37344971 587.5604248 330.16534424 C588.70861816 332.19561768 588.70861816 332.19561768 589.70861816 335.19561768 C580.55637832 341.0545068 571.12367811 346.35760481 561.62878418 351.63751221 C554.27021871 355.73819029 546.97180552 359.9285176 539.70861816 364.19561768 C530.55963783 369.56784012 521.33458066 374.78638637 512.06408691 379.94561768 C504.89508122 383.9452622 497.78769054 388.03909812 490.70861816 392.19561768 C481.55948528 397.56758561 472.33458685 402.78638293 463.06408691 407.94561768 C455.89508122 411.9452622 448.78769054 416.03909812 441.70861816 420.19561768 C432.55948528 425.56758561 423.33458685 430.78638293 414.06408691 435.94561768 C406.89508122 439.9452622 399.78769054 444.03909812 392.70861816 448.19561768 C383.55948528 453.56758561 374.33458685 458.78638293 365.06408691 463.94561768 C356.89757056 468.50178122 348.81831785 473.1952527 340.7545166 477.93023682 C332.37541271 482.83734776 323.91968363 487.59958389 315.43127441 492.3147583 C309.26462176 495.74387824 303.16723904 499.26572959 297.11584473 502.89508057 C294.70861816 504.19561768 294.70861816 504.19561768 292.70861816 504.19561768 C291.25704966 501.99334529 289.91338597 499.78299637 288.58361816 497.50811768 C278.70531423 481.19397717 266.50840411 466.29778469 253.70861816 452.19561768 C253.11774414 451.54302979 252.52687012 450.89044189 251.91809082 450.21807861 C243.21478986 440.59614927 243.21478986 440.59614927 233.66174316 431.84014893 C231.28078949 429.83538593 229.04055097 427.70075895 226.77111816 425.57061768 C208.97791259 409.3748684 188.52125016 396.13601415 167.70861816 384.19561768 C166.95806152 383.76394287 166.20750488 383.33226807 165.4342041 382.88751221 C143.27132971 370.30234119 119.13041785 361.28485383 94.70861816 354.19561768 C93.4300293 353.82315918 93.4300293 353.82315918 92.12561035 353.44317627 C62.92797633 345.06699617 33.43692133 341.96975575 3.14611816 341.94561768 C2.25798431 341.9446106 1.36985046 341.94360352 0.45480347 341.94256592 C-75.17372996 342.00001707 -148.91535616 367.00876056 -208.29138184 414.19561768 C-209.19243652 414.90589111 -210.09349121 415.61616455 -211.02185059 416.34796143 C-217.5219087 421.56451018 -223.67447088 427.11783802 -229.77087402 432.79278564 C-231.27778755 434.18307549 -232.8006343 435.5532505 -234.33044434 436.91827393 C-244.99113268 446.46203006 -254.49062346 456.90241395 -263.29138184 468.19561768 C-263.83810547 468.89686768 -264.3848291 469.59811768 -264.94812012 470.32061768 C-305.48820169 522.6444659 -329.92905776 583.44916464 -337.29138184 649.19561768 C-337.39595703 650.12914062 -337.50053223 651.06266357 -337.60827637 652.0244751 C-338.53985933 661.58111638 -338.53493501 671.16480216 -338.54138184 680.75811768 C-338.54205658 681.66501343 -338.54273132 682.57190918 -338.54342651 683.50628662 C-338.52528032 698.93428424 -337.65466918 713.9279586 -335.29138184 729.19561768 C-335.11445801 730.37510986 -334.93753418 731.55460205 -334.75524902 732.76983643 C-326.14746688 789.203586 -304.03673605 842.74107895 -269.29138184 888.19561768 C-268.84439941 888.78681396 -268.39741699 889.37801025 -267.93688965 889.98712158 C-261.61110308 898.33725094 -254.85142288 906.11147239 -247.66101074 913.72442627 C-245.6746472 915.85808522 -243.77017144 918.06156634 -241.85388184 920.25811768 C-187.70632306 980.5521561 -103.15470789 1016.83760187 -23.29138184 1022.19561768 C-19.38992574 1022.3402382 -15.49217788 1022.382155 -11.58825684 1022.39874268 C-10.50796204 1022.40444275 -9.42766724 1022.41014282 -8.31463623 1022.41601562 C-6.03899085 1022.42539694 -3.76333231 1022.43197198 -1.4876709 1022.43585205 C1.90874501 1022.44547635 5.30453318 1022.47653362 8.70080566 1022.50811768 C23.59563788 1022.58045455 37.98982743 1021.44851912 52.70861816 1019.19561768 C53.79218597 1019.03491791 53.79218597 1019.03491791 54.89764404 1018.87097168 C70.84124943 1016.49582564 86.3772365 1013.16995763 101.70861816 1008.19561768 C102.70538574 1007.87609131 103.70215332 1007.55656494 104.72912598 1007.22735596 C143.89711601 994.54685472 180.59397559 976.10955359 212.70861816 950.19561768 C213.71924316 949.39639893 214.72986816 948.59718018 215.77111816 947.77374268 C221.67396905 943.04475418 227.26734301 938.02721584 232.80236816 932.87921143 C235.42244244 930.45986865 238.08750594 928.10627838 240.77111816 925.75811768 C246.50023341 920.60465516 251.61305581 914.95976529 256.70861816 909.19561768 C257.18025391 908.66871338 257.65188965 908.14180908 258.13781738 907.59893799 C272.2251644 891.82759724 286.21657242 874.17970917 295.70861816 855.19561768 C301.67161798 856.81471034 306.6577248 859.86907738 311.95861816 862.94561768 C320.47474043 867.82761064 329.04949386 872.57210888 337.70861816 877.19561768 C345.89469147 881.57259931 354.02111084 886.03251774 362.08361816 890.63311768 C370.65679321 895.52253588 379.31217368 900.24160693 388.02111816 904.88311768 C397.01584686 909.67758059 405.97656662 914.52106769 414.87268066 919.49639893 C421.07403362 922.96452354 427.29873407 926.39043089 433.52111816 929.82061768 C436.03155512 931.20469546 438.54196507 932.58882222 441.05236816 933.97296143 C441.68391815 934.32113922 442.31546814 934.66931702 442.96615601 935.02804565 C447.37157491 937.45716912 451.77491006 939.89003934 456.17736816 942.32452393 C468.55508106 949.16726603 480.95234042 955.96990192 493.39660645 962.69122314 C499.79373061 966.14938958 506.16562495 969.64886035 512.51672363 973.19073486 C519.50653251 977.08851235 526.51287692 980.95611729 533.52111816 984.82061768 C534.76395966 985.50607781 536.00679819 986.19154334 537.24963379 986.87701416 C541.06914461 988.98348855 544.88886348 991.08958553 548.70861816 993.19561768 C553.77130576 995.98694426 558.83387788 998.77847994 563.89611816 1001.57061768 C564.50133301 1001.90442444 565.10654785 1002.2382312 565.73010254 1002.58215332 C575.73387408 1008.10034756 585.72722918 1013.63703961 595.70861816 1019.19561768 C592.38897421 1026.11652771 588.72265618 1032.69429033 584.64611816 1039.19561768 C584.08175049 1040.10062012 583.51738281 1041.00562256 582.93591309 1041.93804932 C565.01166783 1070.53035743 545.09681094 1097.93984376 523.11340332 1123.55255127 C521.69262634 1125.21432205 520.28359063 1126.88545746 518.87658691 1128.55889893 C506.56102033 1143.15967805 493.25419875 1156.74268997 479.77111816 1170.25811768 C479.13715118 1170.89476349 478.5031842 1171.5314093 477.8500061 1172.18734741 C471.31342423 1178.74485785 464.78386411 1185.21372973 457.70861816 1191.19561768 C456.10093444 1192.65007285 454.49622102 1194.10782662 452.89611816 1195.57061768 C447.6472459 1200.30177113 442.2029974 1204.75438553 436.70861816 1209.19561768 C435.47741729 1210.20644535 434.24699198 1211.21821817 433.01721191 1212.23077393 C406.85747143 1233.72353368 378.97360019 1253.1610905 349.70861816 1270.19561768 C348.94533203 1270.64227783 348.1820459 1271.08893799 347.39562988 1271.5491333 C333.72209577 1279.53233829 319.84268121 1287.0596566 305.70861816 1294.19561768 C304.75068359 1294.67998291 303.79274902 1295.16434814 302.80578613 1295.66339111 C274.35067698 1309.94101752 244.74313705 1321.33532097 214.62106323 1331.54598999 C212.69398397 1332.20058868 210.76929786 1332.86192225 208.84460449 1333.52349854 C200.89655154 1336.23694604 192.91602743 1338.58722545 184.77111816 1340.63311768 C183.61217041 1340.92750732 182.45322266 1341.22189697 181.25915527 1341.52520752 C178.88347135 1342.12791324 176.50725425 1342.7285215 174.13049316 1343.32696533 C170.95349283 1344.13345557 167.78356157 1344.96265098 164.61486816 1345.80108643 C150.7514729 1349.43384581 136.8324373 1352.20931097 122.69299316 1354.53497314 C119.9533796 1354.98581825 117.21706008 1355.4524789 114.48205566 1355.93048096 C23.63466584 1371.76436596 -71.14261503 1368.2520538 -162.54187012 1345.14483643 C-165.85036468 1344.30726468 -169.16193859 1343.4837268 -172.47497559 1342.66436768 C-259.63294521 1320.84099974 -342.89454463 1278.8523409 -432.20935059 1208.80889893 C-435.02773213 1206.40480455 -437.90310137 1204.07793773 -440.79138184 1201.75811768 C-446.59155506 1197.0386172 -452.0305707 1191.96901525 -457.48400879 1186.85943604 C-458.77162415 1185.67409243 -460.07394416 1184.50463858 -461.38586426 1183.34625244 C-468.69647189 1176.88619061 -475.59306418 1170.04631318 -482.4786377 1163.13873291 C-484.4821517 1161.12983903 -486.49098335 1159.12637378 -488.50036621 1157.12335205 C-494.64351274 1150.98339446 -500.691869 1144.84262649 -506.29138184 1138.19561768 C-507.74583701 1136.58793395 -509.20359078 1134.98322053 -510.66638184 1133.38311768 C-514.49052662 1129.14120918 -518.14027639 1124.79010671 -521.72888184 1120.34796143 C-523.62159096 1118.00701887 -525.54388359 1115.69312556 -527.47888184 1113.38702393 C-536.19898971 1102.96766372 -544.39119805 1092.24832903 -552.29138184 1081.19561768 C-552.92833984 1080.30600342 -553.56529785 1079.41638916 -554.22155762 1078.49981689 C-595.25974253 1020.94515411 -625.65065297 958.0027549 -648.29138184 891.19561768 C-648.64958008 890.14164795 -649.00777832 889.08767822 -649.37683105 888.00177002 C-663.81559698 845.14913559 -672.00307659 800.03714468 -677.29138184 755.19561768 C-677.44236328 753.98293213 -677.59334473 752.77024658 -677.74890137 751.52081299 C-680.43093111 729.08666129 -680.60896972 706.59038399 -680.65974426 684.02586365 C-680.66624221 681.68345023 -680.6776825 679.34110649 -680.69018555 676.99871826 C-680.82868506 647.01214709 -678.92589986 617.3000431 -674.41638184 587.63311768 C-674.15304306 585.85287922 -673.88994629 584.07260494 -673.6270752 582.29229736 C-668.36958227 547.03913895 -661.34465957 511.81616778 -649.56481934 478.10577393 C-648.4161135 474.72454442 -647.48985039 471.29518847 -646.54528809 467.85186768 C-644.1101985 459.26840362 -641.03027025 450.9660819 -637.85388184 442.63311768 C-637.39710052 441.42915344 -637.39710052 441.42915344 -636.93109131 440.2008667 C-630.98526472 424.57053521 -624.3954804 409.33640773 -617.29138184 394.19561768 C-616.78365234 393.10329834 -616.27592285 392.010979 -615.75280762 390.88555908 C-603.01336295 363.52828712 -588.19002936 337.45008777 -571.97888184 312.00811768 C-571.33338379 310.99322266 -570.68788574 309.97832764 -570.02282715 308.93267822 C-565.67754177 302.17167672 -561.05880487 295.66363961 -556.29138184 289.19561768 C-555.20903303 287.69120499 -554.12942307 286.18481648 -553.05310059 284.67608643 C-546.36234558 275.32292395 -539.50677567 266.15041152 -532.29138184 257.19561768 C-531.54501465 256.26620361 -530.79864746 255.33678955 -530.02966309 254.37921143 C-520.98299865 243.22111723 -511.59177477 232.38886233 -501.8170166 221.86480713 C-500.68310914 220.62420458 -499.56336713 219.3706245 -498.45129395 218.1104126 C-492.24874659 211.10235822 -485.71517402 204.46628942 -479.08898926 197.862854 C-477.2249494 196.00419659 -475.36634672 194.14022153 -473.50817871 192.2756958 C-468.12292094 186.88742788 -462.75059374 181.54337806 -456.94445801 176.60357666 C-454.38173404 174.42085193 -451.94204091 172.11497284 -449.47888184 169.82061768 C-444.88578808 165.58251066 -440.17867962 161.53961575 -435.30700684 157.62139893 C-433.09495968 155.84201902 -430.89931344 154.04931215 -428.71325684 152.23858643 C-418.52324689 143.8248523 -408.02126926 135.90672493 -397.29138184 128.19561768 C-396.4868457 127.61666748 -395.68230957 127.03771729 -394.85339355 126.44122314 C-339.02784946 86.42863573 -275.00988241 51.74666225 -208.81872559 32.23858643 C-206.02957417 31.41388717 -203.25605688 30.55947096 -200.48278809 29.68389893 C-162.78870099 17.84875888 -124.09814674 9.3613229 -84.91638184 4.25811768 C-84.19893799 4.16229401 -83.48149414 4.06647034 -82.74230957 3.96774292 C-55.27734037 0.36374064 -27.65415441 -0.12128378 0 0 Z " fill="#FEFEFE" transform="translate(924.2913818359375,341.80438232421875)"/>
<path d="M0 0 C2.10011092 -0.00959722 4.19919486 -0.04061788 6.29907227 -0.07226562 C37.34977903 -0.31503126 62.4975487 14.88303529 88.69165039 29.82617188 C95.12515461 33.49303518 101.59749213 37.08835529 108.07446289 40.67773438 C122.00060321 48.40061031 135.89423729 56.18068576 149.78344727 63.96972656 C152.88021663 65.70615037 155.97723951 67.44212052 159.07446289 69.17773438 C160.09926758 69.75201172 161.12407227 70.32628906 162.17993164 70.91796875 C169.88430443 75.2318404 177.60268292 79.52011725 185.32446289 83.80273438 C193.63645921 88.41321161 201.93073339 93.05260388 210.19946289 97.74023438 C221.84413552 104.34063825 233.54449979 110.83905401 245.2512207 117.32861328 C260.6120827 125.84429931 275.96277798 134.37745481 291.28149414 142.96875 C298.9509251 147.26769333 306.63546919 151.53889743 314.32446289 155.80273438 C322.59612429 160.39019567 330.84821396 165.00934895 339.07446289 169.67773438 C347.74660883 174.59834378 356.46334058 179.43454084 365.19946289 184.24023438 C374.8700869 189.55999223 384.50690053 194.93450357 394.10668945 200.38134766 C404.78282663 206.43338989 415.5179486 212.37868025 426.2512207 218.32861328 C441.61351763 226.8450948 456.96517758 235.37986034 472.28588867 243.97094727 C479.91349126 248.24593568 487.55385843 252.49753624 495.19946289 256.74023438 C504.90769523 262.12752578 514.60126514 267.54023235 524.28540039 272.97070312 C531.91319247 277.24572513 539.55369944 281.49744802 547.19946289 285.74023438 C556.90626381 291.12673146 566.59865517 296.53819683 576.28100586 301.96850586 C583.95062675 306.26748249 591.63533533 310.53876363 599.32446289 314.80273438 C607.63648639 319.41316199 615.93073389 324.05260416 624.19946289 328.74023438 C635.84413552 335.34063825 647.54449979 341.83905401 659.2512207 348.32861328 C674.6120827 356.84429931 689.96277798 365.37745481 705.28149414 373.96875 C712.95092533 378.26769346 720.63549433 382.53885181 728.32446289 386.80273438 C737.57542924 391.93396514 746.79852157 397.11139818 756.0012207 402.32861328 C764.47820426 407.12853343 772.99267797 411.85965365 781.51196289 416.58398438 C790.11456014 421.35558444 798.70054112 426.15613229 807.28051758 430.96826172 C814.9503293 435.26727216 822.63530218 439.53844716 830.32446289 443.80273438 C841.62561695 450.07512587 852.90730165 456.3795097 864.13354492 462.78515625 C866.55171173 464.1564478 868.9811067 465.50523156 871.41430664 466.84960938 C884.71946915 474.29498529 896.04057757 483.36160522 905.69946289 495.24023438 C904.39759511 499.14583771 903.01300345 499.48673753 899.46118164 501.47070312 C898.34549805 502.10041016 897.22981445 502.73011719 896.08032227 503.37890625 C894.84924279 504.06192163 893.61812183 504.74486224 892.38696289 505.42773438 C891.11493199 506.14225708 889.84345554 506.85776767 888.57250977 507.57421875 C885.92865335 509.06358416 883.28244812 510.54864565 880.63452148 512.03076172 C874.63350911 515.39427759 868.66837718 518.82016889 862.69946289 522.24023438 C860.3665141 523.57424098 858.03298758 524.90723548 855.69946289 526.24023438 C854.53278558 526.90688242 853.36611891 527.57354908 852.19946289 528.24023438 C817.19946284 548.24023441 817.19946284 548.24023441 815.44950867 549.24020386 C814.2826844 549.90696349 813.11586515 550.57373188 811.9490509 551.24050903 C809.03483643 552.90582525 806.12053547 554.57098974 803.20605469 556.23583984 C797.92670625 559.25178043 792.64802345 562.26885779 787.37252808 565.29153442 C784.41943273 566.98351278 781.465833 568.67460902 778.51196289 570.36523438 C777.93095825 570.69779236 777.34995361 571.03035034 776.75134277 571.37298584 C768.51161138 576.08693336 760.24149447 580.74391432 751.94946289 585.36523438 C742.80500719 590.46238036 733.74587197 595.69022184 724.71801758 600.99072266 C716.55827793 605.76946524 708.31738182 610.39200123 700.05493164 614.99023438 C692.88592594 618.9898789 685.77853526 623.08371482 678.69946289 627.24023438 C669.55033 632.61220231 660.32543158 637.83099963 651.05493164 642.99023438 C643.8859139 646.98988562 636.77881634 651.08417869 629.69946289 655.24023438 C621.11595764 660.2731273 612.49400536 665.23238861 603.82446289 670.11523438 C602.74165039 670.72882812 601.65883789 671.34242188 600.54321289 671.97460938 C599.54547852 672.5340625 598.54774414 673.09351563 597.51977539 673.66992188 C596.19357178 674.41604736 596.19357178 674.41604736 594.84057617 675.17724609 C592.69946289 676.24023438 592.69946289 676.24023438 590.69946289 676.24023438 C589.15456826 673.8090257 587.72739712 671.37730033 586.32446289 668.86523438 C569.34667565 639.26485853 548.39172386 611.06650375 526.0480957 585.29199219 C522.94051188 581.70600668 519.9205189 578.06629212 516.94946289 574.36523438 C513.77780217 570.45504615 510.46826236 566.84973965 506.81665039 563.38476562 C505.06400067 561.60948021 503.47222605 559.81065574 501.85961914 557.91210938 C496.6108405 551.8683362 490.887155 546.27906778 485.22070312 540.63110352 C483.26650665 538.68226568 481.31771142 536.72814166 479.36938477 534.7734375 C473.31384734 528.71466169 467.24036772 522.77899233 460.69946289 517.24023438 C458.92376068 515.62055621 457.15237982 513.9961172 455.38696289 512.36523438 C450.95314978 508.32621284 446.41891705 504.4651656 441.75024414 500.70117188 C439.52657616 498.90743201 437.31747811 497.10151054 435.11743164 495.27929688 C424.92779538 486.86806491 414.41719974 478.96452769 403.69946289 471.24023438 C402.59852295 470.44504395 402.59852295 470.44504395 401.4753418 469.63378906 C340.40609074 425.64848519 269.97083589 389.07704087 196.97583008 369.84619141 C194.73333117 369.24924993 192.50110766 368.6236394 190.26977539 367.98632812 C185.75662177 366.69858032 181.23229705 365.45682738 176.69946289 364.24023438 C175.83611328 364.00836426 174.97276367 363.77649414 174.08325195 363.53759766 C156.77681257 358.9391348 139.30360498 355.45689879 121.69946289 352.24023438 C120.6638623 352.046875 119.62826172 351.85351562 118.5612793 351.65429688 C105.62758788 349.25409595 92.63905934 347.54357278 79.57446289 346.05273438 C78.4833873 345.92544952 78.4833873 345.92544952 77.37026978 345.79559326 C54.64728879 343.17137481 31.88046263 343.05196102 9.03588867 343.05493164 C5.91278234 343.05501247 2.78982406 343.04812081 -0.33325195 343.03442383 C-27.8639407 342.9158282 -55.34431875 343.6194667 -82.67553711 347.24023438 C-83.44972992 347.34049927 -84.22392273 347.44076416 -85.02157593 347.54406738 C-126.91645628 353.04918181 -168.67593748 362.3923742 -208.57885742 376.32470703 C-211.57443414 377.33236874 -214.59031486 378.24820958 -217.61694336 379.15820312 C-224.49142374 381.25456831 -231.20931071 383.68579197 -237.92553711 386.24023438 C-238.85396423 386.59288864 -238.85396423 386.59288864 -239.80114746 386.95266724 C-253.53777269 392.18836249 -266.96201552 398.06122717 -280.30053711 404.24023438 C-281.33065918 404.71541504 -282.36078125 405.1905957 -283.42211914 405.68017578 C-337.14135437 430.58737646 -386.70031017 462.51411875 -432.30053711 500.24023438 C-433.16654541 500.95542236 -433.16654541 500.95542236 -434.05004883 501.68505859 C-441.21497337 507.62016715 -448.14315783 513.76727775 -454.93725586 520.12304688 C-456.75056085 521.81884097 -458.57999664 523.48766087 -460.43896484 525.13354492 C-467.27575438 531.18882816 -473.76239177 537.54861919 -480.20605469 544.01538086 C-481.99228381 545.80699388 -483.78383058 547.59316492 -485.57592773 549.37890625 C-491.36618225 555.16579842 -496.99422361 561.0010652 -502.30053711 567.24023438 C-503.92021527 569.01593658 -505.54465429 570.78731745 -507.17553711 572.55273438 C-512.09672058 577.95493578 -516.71555364 583.55253336 -521.30053711 589.24023438 C-522.30987805 590.47028454 -523.32036309 591.69939648 -524.33178711 592.92773438 C-540.15029504 612.17882993 -554.70543526 632.36241093 -568.30053711 653.24023438 C-568.74300781 653.91650879 -569.18547852 654.5927832 -569.64135742 655.28955078 C-603.47972996 707.21559461 -630.89828234 764.69918645 -648.30053711 824.24023438 C-648.51532715 824.96162598 -648.73011719 825.68301758 -648.95141602 826.42626953 C-652.94026858 839.84182782 -656.33874989 853.35523759 -659.51635742 866.98388672 C-660.23365215 869.96249104 -660.99979439 872.92541323 -661.77438354 875.88951111 C-664.1785286 885.18004197 -665.82880614 894.51239598 -667.30053711 903.99023438 C-667.55853864 905.62625508 -667.81676174 907.26224085 -668.07519531 908.89819336 C-668.71127687 912.94160383 -669.3364825 916.98661737 -669.95880127 921.03216553 C-670.27145336 923.05231458 -670.59105943 925.07138423 -670.91137695 927.09033203 C-675.84924323 958.22788493 -677.88071379 989.36408933 -677.74736786 1020.8630867 C-677.73782705 1023.22984305 -677.73302637 1025.59657701 -677.7288208 1027.96334839 C-677.66680487 1053.88408005 -676.66569732 1079.51259919 -673.30053711 1105.24023438 C-673.1892749 1106.10080444 -673.0780127 1106.96137451 -672.96337891 1107.84802246 C-668.42747808 1142.67737572 -662.23478317 1177.50297876 -651.93774414 1211.12548828 C-651.30534734 1213.22427031 -650.70353751 1215.32962542 -650.10913086 1217.43945312 C-642.6558236 1243.57625297 -633.27443294 1269.38649567 -622.30053711 1294.24023438 C-621.92477539 1295.0977832 -621.54901367 1295.95533203 -621.16186523 1296.83886719 C-612.89856901 1315.64968103 -604.10013138 1334.17962947 -594.30053711 1352.24023438 C-596.66325106 1354.85735724 -599.13489564 1356.41345187 -602.21850586 1358.10351562 C-603.71027344 1358.92819336 -603.71027344 1358.92819336 -605.23217773 1359.76953125 C-606.30661133 1360.35798828 -607.38104492 1360.94644531 -608.48803711 1361.55273438 C-610.7742012 1362.81784191 -613.05933303 1364.08481637 -615.34350586 1365.35351562 C-616.21711258 1365.83850021 -616.21711258 1365.83850021 -617.10836792 1366.33328247 C-622.88911962 1369.5510702 -628.59806944 1372.88631608 -634.30053711 1376.24023438 C-643.44922667 1381.61294064 -652.67458673 1386.83100982 -661.94506836 1391.99023438 C-669.11407668 1395.98988036 -676.22140295 1400.08381689 -683.30053711 1404.24023438 C-692.52488811 1409.65474136 -701.82068183 1414.92654132 -711.16259766 1420.13525391 C-720.29191453 1425.22648046 -729.37148625 1430.40065912 -738.43920898 1435.60058594 C-743.31741938 1438.39598364 -748.19987965 1441.18394312 -753.08187866 1443.97271729 C-756.07290039 1445.68138937 -759.06365772 1447.39052411 -762.05444336 1449.09960938 C-763.26554237 1449.79166886 -764.47664263 1450.48372615 -765.68774414 1451.17578125 C-766.28596985 1451.51762451 -766.88419556 1451.85946777 -767.50054932 1452.21166992 C-772.8312988 1455.25781248 -772.8312988 1455.25781248 -774.58218384 1456.25831604 C-775.74590298 1456.92329986 -776.90961961 1457.58828806 -778.07333374 1458.25328064 C-780.97811094 1459.91317874 -783.88293168 1461.57300054 -786.7878418 1463.23266602 C-792.08556573 1466.25952013 -797.38294469 1469.28697092 -802.67875671 1472.31716919 C-815.1290757 1479.44102812 -827.58964162 1486.54572348 -840.08227539 1493.59521484 C-847.93890222 1498.03042953 -855.77574262 1502.49949512 -863.60522461 1506.98242188 C-867.2902146 1509.09210848 -870.97808708 1511.19663851 -874.6683197 1513.2971344 C-877.19405899 1514.7349288 -879.71907055 1516.17399875 -882.24404907 1517.61312866 C-883.47319318 1518.31326896 -884.70265619 1519.01284973 -885.9324646 1519.71182251 C-887.66670969 1520.69761616 -889.39965599 1521.68569358 -891.13256836 1522.67382812 C-892.20071777 1523.28210449 -893.26886719 1523.89038086 -894.36938477 1524.51708984 C-896.93580791 1526.02582003 -899.40267503 1527.61915923 -901.87475586 1529.27539062 C-905.30053711 1531.24023438 -905.30053711 1531.24023438 -907.38964844 1531.06591797 C-910.77995298 1529.60098761 -911.81856119 1525.99504213 -913.30053711 1522.80273438 C-913.64866455 1522.07787842 -913.99679199 1521.35302246 -914.35546875 1520.60620117 C-918.80911489 1511.2348788 -922.4227783 1503.04405501 -922.42933828 1492.52813935 C-922.43111329 1491.86207161 -922.4328883 1491.19600386 -922.43471709 1490.50975225 C-922.43946208 1488.26952354 -922.43708287 1486.02935907 -922.43475819 1483.78912735 C-922.43671109 1482.16317103 -922.43909993 1480.53721518 -922.44188616 1478.91126007 C-922.44829698 1474.41992271 -922.44844692 1469.92860321 -922.44760875 1465.43726215 C-922.44777804 1460.55963447 -922.4536818 1455.68201324 -922.45884961 1450.80438876 C-922.46818542 1441.11956505 -922.47209931 1431.43474592 -922.47436857 1421.74991827 C-922.47732812 1410.15349544 -922.48602411 1398.5570787 -922.49478285 1386.96065905 C-922.51563909 1358.92790369 -922.52609914 1330.89514726 -922.53491246 1302.86238594 C-922.53911753 1289.60297465 -922.54433973 1276.34356381 -922.54959699 1263.08415291 C-922.56720828 1218.41512955 -922.58226094 1173.74610588 -922.58956723 1129.07707955 C-922.5901512 1125.51606598 -922.59074846 1121.95505241 -922.59134484 1118.39403884 C-922.59146296 1117.68764983 -922.59158108 1116.98126081 -922.59170278 1116.25346607 C-922.59290016 1109.09680604 -922.59410893 1101.94014602 -922.59533532 1094.78348601 C-922.59558055 1093.34855954 -922.59582441 1091.91363308 -922.59606688 1090.47870662 C-922.60385439 1044.40718998 -922.62623211 998.33569883 -922.65874331 952.26419333 C-922.68209468 919.16189726 -922.70364354 886.05960626 -922.71074963 852.95730209 C-922.71089665 852.27626302 -922.71104367 851.59522394 -922.71119514 850.89354731 C-922.71438028 835.94149538 -922.71643095 820.9894435 -922.71742269 806.03739127 C-922.71783742 800.02089664 -922.71839251 794.00440203 -922.7189846 787.98790741 C-922.7191078 786.67164369 -922.71923099 785.35537998 -922.71935791 783.99922949 C-922.72169038 762.81288094 -922.73735303 741.62656228 -922.75782645 720.44022438 C-922.77807929 699.14426716 -922.78356431 677.84834584 -922.77405582 656.55238077 C-922.76883866 643.90059701 -922.77472856 631.24893277 -922.79659049 618.5971662 C-922.81009602 610.14232458 -922.80902369 601.68756526 -922.79618853 593.23272283 C-922.78929034 588.41766648 -922.78862774 583.60283869 -922.80574862 578.78780273 C-922.82122702 574.39881268 -922.81795309 570.01023349 -922.80033834 565.62125514 C-922.79721393 564.05157934 -922.80064793 562.48187152 -922.81183008 560.91223245 C-923.00024224 532.59793548 -911.95396768 507.47775879 -892.30053711 487.24023438 C-881.29227076 476.55824874 -867.7711262 469.37662951 -854.42553711 462.05273438 C-852.04183711 460.73793284 -849.65945882 459.4207447 -847.27709961 458.10351562 C-846.68483582 457.7763858 -846.09257202 457.44925598 -845.48236084 457.11221313 C-839.90013384 454.02612345 -834.34776001 450.88867137 -828.80053711 447.74023438 C-820.49193495 443.0284454 -812.15459181 438.3709397 -803.80053711 433.74023438 C-794.4620791 428.56329365 -785.14863535 423.34515015 -775.85864258 418.08178711 C-765.74535394 412.35360503 -755.60187127 406.67971935 -745.45776367 401.00634766 C-740.2376 398.08625301 -735.01915032 395.16309871 -729.80053711 392.24023438 C-727.7172121 391.07355284 -725.63387877 389.90688618 -723.55053711 388.74023438 C-722.00366211 387.87398438 -722.00366211 387.87398438 -720.42553711 386.99023438 C-617.30053711 329.24023438 -514.17553711 271.49023437 -111.05053711 45.74023438 C-109.50281616 44.87350098 -109.50281616 44.87350098 -107.92382812 43.98925781 C-105.84621362 42.82580668 -103.768577 41.66239505 -101.69091797 40.49902344 C-95.31561978 36.92913644 -88.94113482 33.35780312 -82.56738281 29.78515625 C-79.42225026 28.02340276 -76.27550393 26.26455743 -73.12866211 24.50585938 C-69.48480677 22.4682555 -65.84915043 20.41751172 -62.22241211 18.34960938 C-42.24677149 7.00070883 -23.19603984 0.0637911 0 0 Z " fill="#659AD2" transform="translate(922.300537109375,-0.240234375)"/>
<path d="M0 0 C0.804375 1.49660156 0.804375 1.49660156 1.625 3.0234375 C13.69869263 25.24484422 27.24001015 46.47350865 42 67 C42.61117676 67.85207031 43.22235352 68.70414063 43.85205078 69.58203125 C51.41831705 80.09266417 59.30284211 90.28536872 67.56298828 100.25878906 C69.64503132 102.7815772 71.69406795 105.3309177 73.75 107.875 C77.33931703 112.25975176 81.07605042 116.48632607 84.890625 120.67578125 C86.74626657 122.72042335 88.56756376 124.78784149 90.375 126.875 C99.01731256 136.76688235 108.05178622 146.21452763 117.35327148 155.48364258 C119.19958246 157.32454708 121.04042273 159.17080272 122.88085938 161.01757812 C128.75352292 166.89354755 134.66451801 172.61945329 141 178 C142.77570221 179.61967817 144.54708307 181.24411718 146.3125 182.875 C151.71154563 187.79744023 157.31393497 192.41550882 163 197 C164.79211399 198.47862467 166.58377801 199.95779488 168.375 201.4375 C174.48280744 206.42539917 180.69156021 211.2695167 187 216 C187.91604004 216.68690918 187.91604004 216.68690918 188.85058594 217.38769531 C199.07271997 225.00367836 209.59365259 232.16570713 220.1875 239.25 C220.81026825 239.66779724 221.4330365 240.08559448 222.07467651 240.51605225 C231.21555222 246.6398804 240.51800455 252.41996844 250 258 C250.89549561 258.52932129 251.79099121 259.05864258 252.71362305 259.60400391 C300.68266299 287.79003104 352.32692818 311.08115607 406 326 C406.9502002 326.26731934 407.90040039 326.53463867 408.87939453 326.81005859 C496.89781351 351.47093599 589.72240186 359.97326544 711.956604 343.35095215 C715.07506851 342.81535757 718.19979357 342.31977351 721.32421875 341.8203125 C750.78402239 336.9946395 779.68362917 329.38850652 808 320 C809.16869629 319.61763184 810.33739258 319.23526367 811.54150391 318.84130859 C840.88356601 309.20235094 869.18913076 297.40613715 897 284 C898.04091797 283.50145508 899.08183594 283.00291016 900.15429688 282.48925781 C914.57883508 275.55139337 928.46420413 267.89743067 942.19384766 259.67431641 C944.81079555 258.11289056 947.43945664 256.57408419 950.07421875 255.04296875 C984.41874702 234.9623603 1017.51727059 210.83502106 1046.88671875 183.93359375 C1048.85669206 182.13112279 1050.85622056 180.37241601 1052.875 178.625 C1062.91892948 169.84882819 1072.49819336 160.66380069 1081.91088867 151.21948242 C1083.82422194 149.30074495 1085.74290504 147.38747246 1087.66210938 145.47460938 C1093.65512335 139.48484257 1099.52926962 133.47725655 1105 127 C1106.45445517 125.39231627 1107.91220895 123.78760285 1109.375 122.1875 C1114.10615345 116.93862774 1118.55876785 111.49437924 1123 106 C1124.01082767 104.76879913 1125.02260049 103.53837382 1126.03515625 102.30859375 C1148.79099763 74.6095616 1170.47521365 44.76347048 1187.5 13.15234375 C1189.23871915 10.65746288 1190.09640317 9.87768663 1193 9 C1195.73535156 10.03540039 1195.73535156 10.03540039 1198.890625 11.84765625 C1199.46352768 12.17034988 1200.03643036 12.49304352 1200.62669373 12.82551575 C1202.50971756 13.89013052 1204.37936788 14.97628445 1206.25 16.0625 C1207.55734798 16.80596331 1208.8657098 17.54764649 1210.17504883 18.28759766 C1212.84016318 19.79466842 1215.50147088 21.30815868 1218.16064453 22.82568359 C1223.62142336 25.93105955 1229.15300138 28.90361491 1234.6875 31.875 C1242.08728688 35.8690146 1249.46409665 39.89951752 1256.80810547 43.99511719 C1265.04182331 48.58654459 1273.29849175 53.13627264 1281.55419922 57.68798828 C1282.81738282 58.38444009 1284.08056641 59.08089191 1285.34375 59.77734375 C1286.29110519 60.29962555 1286.29110519 60.29962555 1287.25759888 60.8324585 C1291.66299483 63.26157651 1296.06631178 65.69443266 1300.46875 68.12890625 C1312.84646289 74.97164835 1325.24372225 81.77428424 1337.68798828 88.49560547 C1344.08511245 91.9537719 1350.45700678 95.45324267 1356.80810547 98.99511719 C1363.79791407 102.89289452 1370.8042302 106.76055176 1377.8125 110.625 C1379.06339648 111.31485768 1380.31429165 112.00471772 1381.56518555 112.69458008 C1384.10931979 114.09759363 1386.65352147 115.50048483 1389.19775391 116.90332031 C1394.09913431 119.60594332 1398.9997872 122.30988447 1403.90039062 125.01391602 C1406.30392663 126.34012432 1408.70757876 127.6661218 1411.11132812 128.99194336 C1416.59736162 132.01799438 1422.08281015 135.04508518 1427.56565857 138.0769043 C1440.56758212 145.26638515 1453.58696708 152.41940122 1466.65942383 159.48022461 C1480.86296172 167.15862521 1494.93696223 175.06798687 1509 183 C1509.27070312 182.13503906 1509.54140625 181.27007813 1509.8203125 180.37890625 C1510.96971239 177.08675093 1512.34678644 174.06915006 1513.875 170.9375 C1516.92101064 164.45726168 1519.08317801 157.88928375 1521 151 C1521.33 151 1521.66 151 1522 151 C1520.96576953 168.23717453 1511.14647809 185.2611679 1500 198 C1499.14921875 199.0828125 1499.14921875 199.0828125 1498.28125 200.1875 C1487.69535673 213.18771981 1472.44313783 221.41769357 1457.98095703 229.36230469 C1454.80282251 231.1083265 1451.63321906 232.86914704 1448.46484375 234.6328125 C1443.88005278 237.18413051 1439.29247282 239.73032672 1434.703125 242.2734375 C1428.57671003 245.67329973 1422.47108973 249.10861282 1416.375 252.5625 C1403.22223455 260.01451759 1390.02811474 267.39205058 1376.83398438 274.77050781 C1365.71029032 280.99194386 1354.59187595 287.22197534 1343.5 293.5 C1332.40527296 299.77963839 1321.28386607 306.01100698 1310.15722656 312.23388672 C1304.93706291 315.15398136 1299.71859227 318.07709832 1294.5 321 C1288.22741152 324.51323852 1281.95445881 328.02581749 1275.6796875 331.53515625 C1265.60795878 337.16934113 1255.54338657 342.81542249 1245.5 348.5 C1234.40527296 354.77963839 1223.28386607 361.01100698 1212.15722656 367.23388672 C1206.93706291 370.15398136 1201.71859227 373.07709832 1196.5 376 C1190.22741152 379.51323852 1183.95445881 383.02581749 1177.6796875 386.53515625 C1167.60795878 392.16934113 1157.54338657 397.81542249 1147.5 403.5 C1134.30355826 410.96921324 1121.06868279 418.369364 1107.83398438 425.77050781 C1096.71029032 431.99194386 1085.59187595 438.22197534 1074.5 444.5 C1063.40527296 450.77963839 1052.28386607 457.01100698 1041.15722656 463.23388672 C1035.93706291 466.15398136 1030.71859227 469.07709832 1025.5 472 C1019.22741152 475.51323852 1012.95445881 479.02581749 1006.6796875 482.53515625 C996.60795878 488.16934113 986.54338657 493.81542249 976.5 499.5 C965.40527296 505.77963839 954.28386607 512.01100698 943.15722656 518.23388672 C937.93706291 521.15398136 932.71859227 524.07709832 927.5 527 C921.22741152 530.51323852 914.95445881 534.02581749 908.6796875 537.53515625 C898.60795878 543.16934113 888.54338657 548.81542249 878.5 554.5 C867.40527296 560.77963839 856.28386607 567.01100698 845.15722656 573.23388672 C839.93706291 576.15398136 834.71859227 579.07709832 829.5 582 C823.22741152 585.51323852 816.95445881 589.02581749 810.6796875 592.53515625 C800.60795878 598.16934113 790.54338657 603.81542249 780.5 609.5 C767.30355826 616.96921324 754.06868279 624.369364 740.83398438 631.77050781 C729.71029032 637.99194386 718.59187595 644.22197534 707.5 650.5 C698.51382859 655.58619155 689.51601134 660.65111979 680.49853516 665.68164062 C675.11240794 668.68761736 669.74063283 671.71528582 664.390625 674.78515625 C633.58312487 692.40549597 603.61808616 700.84689571 568.375 692.375 C553.82948325 688.08031079 540.77748808 680.95093764 527.74609375 673.3359375 C521.42711627 669.64536347 515.0291568 666.10258186 508.625 662.5625 C499.24390721 657.36669599 489.88893567 652.12812791 480.55859375 646.84179688 C470.44509706 641.11361307 460.30149309 635.43957386 450.15722656 629.76611328 C443.89671092 626.26405868 437.63851388 622.75786247 431.37988281 619.25244141 C426.14724952 616.32187215 420.91405778 613.39230956 415.6796875 610.46484375 C404.65829479 604.2994112 393.64954681 598.1126603 382.65917969 591.89208984 C371.46050486 585.55715696 360.22961975 579.2798583 349 573 C335.8708703 565.65789261 322.75034094 558.30171411 309.65917969 550.89208984 C299.51007325 545.15088304 289.33414242 539.4578339 279.15722656 533.76611328 C272.89671092 530.26405868 266.63851388 526.75786247 260.37988281 523.25244141 C255.14724952 520.32187215 249.91405778 517.39230956 244.6796875 514.46484375 C233.65829479 508.2994112 222.64954681 502.1126603 211.65917969 495.89208984 C201.51007325 490.15088304 191.33414242 484.4578339 181.15722656 478.76611328 C174.89671092 475.26405868 168.63851388 471.75786247 162.37988281 468.25244141 C157.14724952 465.32187215 151.91405778 462.39230956 146.6796875 459.46484375 C135.65829479 453.2994112 124.64954681 447.1126603 113.65917969 440.89208984 C103.51007325 435.15088304 93.33414242 429.4578339 83.15722656 423.76611328 C76.89671092 420.26405868 70.63851388 416.75786247 64.37988281 413.25244141 C59.14724952 410.32187215 53.91405778 407.39230956 48.6796875 404.46484375 C37.65829479 398.2994112 26.64954681 392.1126603 15.65917969 385.89208984 C4.46050486 379.55715696 -6.77038025 373.2798583 -18 367 C-31.1291297 359.65789261 -44.24965906 352.30171411 -57.34082031 344.89208984 C-67.48992675 339.15088304 -77.66585758 333.4578339 -87.84277344 327.76611328 C-94.10328908 324.26405868 -100.36148612 320.75786247 -106.62011719 317.25244141 C-111.85275048 314.32187215 -117.08594222 311.39230956 -122.3203125 308.46484375 C-133.34170521 302.2994112 -144.35045319 296.1126603 -155.34082031 289.89208984 C-165.48992675 284.15088304 -175.66585758 278.4578339 -185.84277344 272.76611328 C-192.10328908 269.26405868 -198.36148612 265.75786247 -204.62011719 262.25244141 C-209.85275048 259.32187215 -215.08594222 256.39230956 -220.3203125 253.46484375 C-232.36385298 246.72783696 -244.40079586 239.97957364 -256.40234375 233.16796875 C-260.1759901 231.02677581 -263.96070113 228.90711513 -267.75390625 226.80078125 C-276.73193647 221.79031292 -285.32742358 216.92091921 -293 210 C-293.81082031 209.3296875 -294.62164062 208.659375 -295.45703125 207.96875 C-310.80836059 194.95195462 -322.63486204 175.74346882 -327 156 C-326.6171875 153.58203125 -326.6171875 153.58203125 -326 152 C-325.62488281 153.05058594 -325.24976563 154.10117188 -324.86328125 155.18359375 C-322.10187615 162.79876213 -319.32900765 170.10423561 -315 177 C-311.56406532 176.32739369 -308.91798394 174.98050766 -305.87890625 173.26171875 C-304.36828613 172.4116626 -304.36828613 172.4116626 -302.82714844 171.54443359 C-301.21114746 170.62525146 -301.21114746 170.62525146 -299.5625 169.6875 C-298.44520508 169.05666504 -297.32791016 168.42583008 -296.17675781 167.77587891 C-292.78122232 165.8563068 -289.38988343 163.92953312 -286 162 C-285.04657715 161.45778809 -284.0931543 160.91557617 -283.11083984 160.35693359 C-277.9116118 157.39766309 -272.71919858 154.42663714 -267.52978516 151.45019531 C-263.33498408 149.04553227 -259.13603713 146.64813183 -254.9375 144.25 C-253.18747967 143.25003558 -251.43748026 142.25003455 -249.6875 141.25 C-242.07739258 136.90136719 -234.46728516 132.55273438 -226.85717773 128.20410156 C-226.26244156 127.86425232 -225.66770538 127.52440308 -225.0549469 127.17425537 C-212.4692383 119.98242188 -212.4692383 119.98242188 -210.71835327 118.98191833 C-209.55463413 118.31693452 -208.3909175 117.65194632 -207.22720337 116.98695374 C-204.32242617 115.32705563 -201.41760543 113.66723383 -198.51269531 112.00756836 C-193.21493578 108.9806939 -187.91752131 105.95322261 -182.62167358 102.92300415 C-170.33537696 95.89299545 -158.03925098 88.88158689 -145.71044922 81.92626953 C-134.64223139 75.6773103 -123.61265373 69.36076354 -112.58056641 63.04833984 C-107.30330481 60.02899321 -102.02407184 57.01309681 -96.7449646 53.99697876 C-93.82989353 52.3314642 -90.91495347 50.66572037 -88 49 C-86.83333396 48.33333224 -85.66666729 47.66666557 -84.5 47 C-83.9225 46.67 -83.345 46.34 -82.75 46 C-77.5 43 -77.5 43 -75.75007629 42.00004578 C-74.58315281 41.3332309 -73.41623183 40.66641165 -72.24931335 39.99958801 C-69.33659649 38.33515299 -66.42383645 36.67079361 -63.51098633 35.0065918 C-57.61442917 31.63759457 -51.71863561 28.26727191 -45.82421875 24.89453125 C-40.01095854 21.56833352 -34.19499105 18.24691407 -28.37744141 14.92822266 C-26.10800142 13.63257158 -23.83945949 12.33534633 -21.57177734 11.03662109 C-18.34177391 9.18709691 -15.10876519 7.34293692 -11.875 5.5 C-10.41646606 4.66239136 -10.41646606 4.66239136 -8.9284668 3.80786133 C-8.04199463 3.30407959 -7.15552246 2.80029785 -6.2421875 2.28125 C-5.4672998 1.83845703 -4.69241211 1.39566406 -3.89404297 0.93945312 C-2 0 -2 0 0 0 Z " fill="#004482" transform="translate(329,1353)"/>
<path d="M0 0 C1.30807617 -0.00163147 1.30807617 -0.00163147 2.64257812 -0.0032959 C38.73645497 0.00180403 73.56304374 5.73048288 107.8125 17.1875 C108.87025131 17.54015427 108.87025131 17.54015427 109.94937134 17.89993286 C138.77204639 27.5723535 165.89358721 41.03413014 191 58.1875 C191.90322998 58.80141602 191.90322998 58.80141602 192.82470703 59.42773438 C207.15050547 69.22814289 220.33325327 80.34572457 233 92.1875 C234.05133494 93.13898932 235.10476126 94.08817236 236.16015625 95.03515625 C241.13557467 99.5079762 245.94698893 103.98804927 250.25 109.12890625 C252.29784315 111.53786459 254.46152569 113.81937433 256.625 116.125 C267.09164857 127.60968126 276.15978121 140.42740683 285 153.1875 C285.58136719 154.02539062 286.16273438 154.86328125 286.76171875 155.7265625 C288.1875 157.875 288.1875 157.875 290 161.1875 C288.66513685 165.19208944 287.08479795 165.51807422 283.40234375 167.48828125 C282.82551346 167.80098465 282.24868317 168.11368805 281.65437317 168.43586731 C280.4065362 169.11139424 279.15645254 169.78278379 277.90441895 170.45050049 C274.56488414 172.23239402 271.24229883 174.0454148 267.91796875 175.85546875 C267.24416168 176.22140137 266.57035461 176.58733398 265.87612915 176.96435547 C259.76279011 180.2935451 253.74529109 183.7753136 247.75 187.3125 C239.72121591 192.0395278 231.64173897 196.65772792 223.5 201.1875 C215.27794419 205.76310852 207.1141843 210.4232083 199 215.1875 C189.84945939 220.56029449 180.62331625 225.7802244 171.35107422 230.93969727 C164.22371733 234.91565635 157.16060908 238.98913998 150.125 243.125 C140.52434496 248.76649163 130.82047748 254.19962614 121.07128906 259.57958984 C112.61248188 264.25993587 104.2516336 269.08936334 95.91796875 273.98828125 C88.82838852 278.14650268 81.68193905 282.1911613 74.5 286.1875 C66.27797099 290.76316573 58.11425646 295.42332452 50 300.1875 C40.77705666 305.60118072 31.48250251 310.87183861 22.14233398 316.08032227 C9.96435112 322.87249308 -2.1382683 329.79309734 -14.20703125 336.77734375 C-26.00507246 343.60353718 -37.8369897 350.35539458 -49.74511719 356.98779297 C-57.88583156 361.53415546 -65.94052289 366.21687007 -73.98095703 370.93774414 C-82.14090313 375.71649342 -90.38192169 380.33917816 -98.64453125 384.9375 C-105.81353695 388.93714452 -112.92092763 393.03098044 -120 397.1875 C-129.15054061 402.56029449 -138.37668375 407.7802244 -147.64892578 412.93969727 C-154.77628267 416.91565635 -161.83939092 420.98913998 -168.875 425.125 C-178.47565504 430.76649163 -188.17952252 436.19962614 -197.92871094 441.57958984 C-206.38751812 446.25993587 -214.7483664 451.08936334 -223.08203125 455.98828125 C-230.1716151 460.14650481 -237.31813908 464.19101612 -244.5 468.1875 C-252.84245838 472.83217086 -261.13337134 477.55356465 -269.375 482.375 C-270.35879639 482.95008301 -271.34259277 483.52516602 -272.35620117 484.11767578 C-277.11774198 486.90466749 -281.8723985 489.70290182 -286.62109375 492.51171875 C-288.35151516 493.52872638 -290.08198149 494.5456576 -291.8125 495.5625 C-292.60124512 496.03324951 -293.38999023 496.50399902 -294.20263672 496.98901367 C-294.92596191 497.41287354 -295.64928711 497.8367334 -296.39453125 498.2734375 C-297.02206299 498.6451709 -297.64959473 499.0169043 -298.29614258 499.39990234 C-300 500.1875 -300 500.1875 -303 500.1875 C-310.58378161 485.04697343 -317.37881216 469.85907564 -323.03295898 453.89233398 C-323.67766652 452.0890735 -324.3386925 450.29156432 -325.01586914 448.50024414 C-333.00747785 427.27414859 -336.80349564 404.55642614 -340 382.1875 C-340.13277344 381.29708008 -340.26554688 380.40666016 -340.40234375 379.48925781 C-342.26068926 366.55914034 -342.20036316 353.53614826 -342.25 340.5 C-342.2554483 339.63071869 -342.26089661 338.76143738 -342.26651001 337.86581421 C-342.32265775 325.8216265 -341.53289118 314.12888429 -340 302.1875 C-339.79361332 300.27652905 -339.59105853 298.36513506 -339.39453125 296.453125 C-335.34975862 260.28352362 -324.28495254 224.68450412 -308 192.1875 C-307.51917969 191.21635254 -307.03835938 190.24520508 -306.54296875 189.24462891 C-293.7063072 163.44852772 -278.01012583 139.85092747 -259 118.1875 C-258.39027344 117.47851562 -257.78054688 116.76953125 -257.15234375 116.0390625 C-255.45352743 114.07116653 -253.73124195 112.12692928 -252 110.1875 C-250.80503906 108.83591797 -250.80503906 108.83591797 -249.5859375 107.45703125 C-242.81339029 99.87481773 -235.59652462 92.93751053 -228 86.1875 C-227.46036621 85.70313477 -226.92073242 85.21876953 -226.36474609 84.71972656 C-207.38027238 67.73749941 -186.25073987 53.37457195 -163.89257812 41.22412109 C-162.11046302 40.24800387 -160.34369691 39.24401228 -158.578125 38.23828125 C-123.85513179 18.87353504 -84.29878931 7.26486296 -45 2.1875 C-43.62714844 2.00960937 -43.62714844 2.00960937 -42.2265625 1.828125 C-28.18307617 0.11848319 -14.12646526 0.00948 0 0 Z " fill="#659AD1" transform="translate(927,682.8125)"/>
<path d="M0 0 C0.66 0.33 1.32 0.66 2 1 C0.515 1.495 0.515 1.495 -1 2 C1.41548749 4.70715008 3.97261957 6.21429696 7.171875 7.8984375 C8.21649902 8.45329834 9.26112305 9.00815918 10.33740234 9.57983398 C12.02663818 10.46844116 12.02663818 10.46844116 13.75 11.375 C16.13483465 12.64075101 18.51699082 13.91148158 20.8984375 15.18359375 C21.50052032 15.50487747 22.10260315 15.82616119 22.72293091 16.15718079 C28.32787511 19.15707473 33.85648611 22.28231236 39.375 25.4375 C47.94771201 30.32771102 56.60361124 35.0459326 65.3125 39.6875 C75.09760374 44.90361364 84.83722191 50.18737426 94.51123047 55.60693359 C109.48118032 63.98622866 124.48719033 72.29427224 139.58374023 80.44335938 C146.01610417 83.91782952 152.42271429 87.43406181 158.80761719 90.99487305 C167.04153841 95.58630928 175.29833232 100.13618474 183.55419922 104.68798828 C184.81738282 105.38444009 186.08056641 106.08089191 187.34375 106.77734375 C187.97532013 107.12553162 188.60689026 107.47371948 189.25759888 107.8324585 C193.66299483 110.26157651 198.06631178 112.69443266 202.46875 115.12890625 C214.84646289 121.97164835 227.24372225 128.77428424 239.68798828 135.49560547 C246.07559124 138.94862491 252.43859532 142.4418601 258.77954102 145.97973633 C265.40771677 149.67714128 272.05430349 153.340823 278.70196533 157.00302124 C289.49716709 162.95054115 300.27790661 168.92133288 311 175 C310.4355979 178.7843244 309.41868432 181.31194774 307.296875 184.484375 C306.73532715 185.32863037 306.1737793 186.17288574 305.59521484 187.04272461 C304.98629395 187.93612549 304.37737305 188.82952637 303.75 189.75 C303.12174316 190.68013916 302.49348633 191.61027832 301.84619141 192.56860352 C285.67889007 216.28456335 266.90247163 239.34233898 245 258 C243.94686697 258.92589074 242.89485946 259.85306265 241.84375 260.78125 C223.10353791 277.22619502 202.73344502 290.85328174 181 303 C180.25298828 303.4228125 179.50597656 303.845625 178.73632812 304.28125 C164.70630636 312.17853578 150.01427106 318.23271562 135 324 C134.08541016 324.35223633 133.17082031 324.70447266 132.22851562 325.06738281 C112.72741486 332.47899292 92.71911914 336.88856407 72.1875 340.3125 C71.41414307 340.44173859 70.64078613 340.57097717 69.84399414 340.70413208 C57.23955291 342.7915206 44.94159077 344.154111 32.1484375 344.16796875 C31.05012604 344.17129715 29.95181458 344.17462555 28.82022095 344.17805481 C26.50922052 344.18308607 24.19821293 344.18546432 21.88720703 344.18530273 C18.40514753 344.18748114 14.92340958 344.20565601 11.44140625 344.22460938 C-0.89677752 344.25533836 -12.78478777 343.72959498 -25 342 C-27.62318337 341.7266892 -30.24844788 341.49008515 -32.875 341.25 C-62.76756855 337.93945316 -92.65128155 328.26709507 -120 316 C-120.97855957 315.56349121 -121.95711914 315.12698242 -122.96533203 314.67724609 C-156.30872702 299.6416926 -186.57760475 279.51207942 -213.28125 254.53125 C-215.76927988 252.21480839 -218.31082129 249.98116849 -220.875 247.75 C-231.20080475 238.47174066 -240.44204174 227.90627461 -249 217 C-250.12728516 215.60007812 -250.12728516 215.60007812 -251.27734375 214.171875 C-261.71292189 200.97940992 -270.92229677 186.84472801 -279.375 172.3125 C-279.84542725 171.50474121 -280.31585449 170.69698242 -280.80053711 169.86474609 C-284 164.26067263 -284 164.26067263 -284 162 C-224.49999999 128 -224.49999999 128 -222.75004578 127.00003052 C-221.58322151 126.33327089 -220.41640226 125.6665025 -219.24958801 124.99972534 C-216.33537354 123.33440912 -213.42107258 121.66924463 -210.5065918 120.00439453 C-205.22724336 116.98845394 -199.94856056 113.97137659 -194.67306519 110.94869995 C-191.71996984 109.2567216 -188.76637011 107.56562536 -185.8125 105.875 C-185.23149536 105.54244202 -184.65049072 105.20988403 -184.05187988 104.86724854 C-175.81214849 100.15330102 -167.54203158 95.49632005 -159.25 90.875 C-150.10554429 85.77785402 -141.04640908 80.55001254 -132.01855469 75.24951172 C-123.85881504 70.47076913 -115.61791893 65.84823314 -107.35546875 61.25 C-100.18646043 57.25035401 -93.07913415 53.15641748 -86 49 C-76.775649 43.58549301 -67.47985528 38.31369306 -58.13793945 33.10498047 C-51.63495149 29.47840189 -45.14973194 25.82371142 -38.6875 22.125 C-37.86830078 21.65731201 -37.04910156 21.18962402 -36.20507812 20.70776367 C-31.62170182 18.08737846 -27.04898659 15.44954822 -22.48655701 12.79290771 C-19.90324179 11.29033398 -17.31629321 9.79408245 -14.72891235 8.29852295 C-13.4558494 7.56047607 -12.18448816 6.81948573 -10.91488647 6.07550049 C-9.14139511 5.03651369 -7.36245777 4.00751259 -5.58203125 2.98046875 C-4.55311768 2.38129639 -3.5242041 1.78212402 -2.46411133 1.16479492 C-1.65095459 0.7804126 -0.83779785 0.39603027 0 0 Z " fill="#004482" transform="translate(909,1021)"/>
</svg>
