<?xml version="1.0" encoding="UTF-8"?>
<svg version="1.1" xmlns="http://www.w3.org/2000/svg" width="1820" height="2048">
<path d="M0 0 C0.80501953 0.19835449 1.61003906 0.39670898 2.43945312 0.60107422 C25.32427191 6.33139637 45.88216754 17.10197889 65.96875 29.20166016 C71.08762656 32.23851943 76.29503667 35.11405573 81.5 38 C91.71354308 43.68484429 101.82569346 49.52736374 111.91015625 55.4375 C118.21570419 59.1321331 124.54294436 62.78852681 130.875 66.4375 C131.95515381 67.06003662 133.03530762 67.68257324 134.14819336 68.32397461 C136.33796334 69.58576826 138.52782355 70.84740534 140.71777344 72.10888672 C146.14659942 75.23680148 151.57319281 78.36858448 157 81.5 C159.16665583 82.75001879 161.3333225 84.00001878 163.5 85.25 C202.5 107.75 202.5 107.75 205.74951172 109.62475586 C207.91776264 110.8756448 210.08605697 112.12645852 212.25439453 113.37719727 C217.64717915 116.48798335 223.03922093 119.60004238 228.4296875 122.71484375 C240.23629484 129.53502637 252.06027 136.3232326 263.90472412 143.07736206 C272.94471708 148.23416608 281.94525321 153.45543769 290.92675781 158.71337891 C298.54905778 163.16916344 306.20531311 167.56397146 313.875 171.9375 C326.20025196 178.96603507 338.49722067 186.04240434 350.78222656 193.14111328 C356.18670641 196.26324603 361.59344718 199.38145881 367 202.5 C373.47766885 206.23636915 379.95489983 209.97348347 386.4296875 213.71484375 C397.60449102 220.17019142 408.79154303 226.60329344 420 233 C432.28241289 240.00961705 444.53757795 247.0657242 456.78222656 254.14111328 C462.18670645 257.26324605 467.59347412 260.38141204 473 263.5 C475.1666775 264.74998122 477.33334417 265.99998121 479.5 267.25 C480.5725 267.86875 481.645 268.4875 482.75 269.125 C492.50000001 274.75000001 492.50000001 274.75000001 495.74951172 276.62475586 C497.91776264 277.8756448 500.08605697 279.12645852 502.25439453 280.37719727 C507.64717915 283.48798335 513.03922093 286.60004238 518.4296875 289.71484375 C530.23629484 296.53502637 542.06027 303.3232326 553.90472412 310.07736206 C562.94471708 315.23416608 571.94525321 320.45543769 580.92675781 325.71337891 C588.54905778 330.16916344 596.20531311 334.56397146 603.875 338.9375 C616.20025196 345.96603507 628.49722067 353.04240434 640.78222656 360.14111328 C646.18670641 363.26324603 651.59344718 366.38145881 657 369.5 C663.47766885 373.23636915 669.95489983 376.97348347 676.4296875 380.71484375 C688.23629484 387.53502637 700.06027 394.3232326 711.90472412 401.07736206 C720.93902511 406.23091913 729.93533492 411.44650121 738.90917969 416.70458984 C745.49020303 420.55425916 752.10208791 424.34704175 758.73022461 428.11474609 C779.54258616 439.9453993 799.52350195 451.41973262 817 468 C817.49999512 468.46744629 817.99999023 468.93489258 818.51513672 469.41650391 C848.10428906 497.22436948 866.52711711 537.74401364 868.09447253 578.4537864 C868.1329015 581.14698088 868.14158072 583.83860935 868.1386652 586.53207779 C868.14150742 587.56187584 868.14434964 588.5916739 868.14727798 589.65267795 C868.15559934 593.10376692 868.15689143 596.55482219 868.15821838 600.00592041 C868.16278661 602.50843025 868.16778702 605.01093933 868.17318195 607.51344752 C868.18392568 612.95928714 868.19160425 618.4051178 868.19658089 623.8509655 C868.20400703 631.96052145 868.21710253 640.0700614 868.23132664 648.17960792 C868.25518703 661.87894278 868.27438525 675.57828055 868.29092598 689.27762604 C868.30748451 702.98559177 868.32599864 716.69355256 868.34705925 730.40151215 C868.34837686 731.2602419 868.34969446 732.11897166 868.351052 733.00372353 C868.35641236 736.49334516 868.36178654 739.98296678 868.36717889 743.47258836 C868.41651153 775.40115391 868.46106806 807.32972431 868.50268555 839.25830078 C868.54128987 868.87321463 868.58271423 898.48812247 868.62768555 928.10302734 C868.63043478 929.91637736 868.63318337 931.72972739 868.63593133 933.54307741 C868.64552587 939.87366023 868.65512457 946.20424305 868.66473322 952.53482586 C868.77016899 1022.00608935 868.86228892 1091.47735735 868.93619728 1160.9486618 C868.93797082 1162.61319134 868.93974483 1164.27772087 868.94151931 1165.9422504 C868.94283185 1167.17348278 868.94283185 1167.17348278 868.9441709 1168.42958854 C868.94768449 1171.72438756 868.95120138 1175.01918657 868.95471881 1178.31398558 C868.9564617 1179.94847655 868.95820126 1181.58296752 868.95993747 1183.21745849 C868.9860267 1207.77756163 869.01769793 1232.33765161 869.05363477 1256.8977422 C869.08779589 1280.26849048 869.11504434 1303.6392343 869.13298529 1327.0100019 C869.14314755 1340.01240015 869.15861655 1353.01476433 869.18219937 1366.01714534 C869.19721769 1374.6117735 869.20481626 1383.2063877 869.20637779 1391.80102879 C869.20744688 1396.63254912 869.21148362 1401.46400867 869.22476268 1406.2955122 C869.373087 1462.62392899 869.373087 1462.62392899 863 1488 C862.82098145 1488.72687012 862.64196289 1489.45374023 862.45751953 1490.20263672 C851.51983547 1533.53381864 821.90382555 1568.6757772 784 1591.375 C781.34445366 1592.9362278 778.6723459 1594.46775665 776 1596 C774.06604718 1597.11917142 772.13248559 1598.23901904 770.19921875 1599.359375 C764.61398016 1602.59181048 759.02150304 1605.81152387 753.42724609 1609.02832031 C747.94844195 1612.18025237 742.47441661 1615.34045589 737 1618.5 C734.83074266 1619.75132548 732.66147181 1621.00262754 730.4921875 1622.25390625 C726.18398349 1624.73930902 721.87677211 1627.22641977 717.5703125 1629.71484375 C705.76370516 1636.53502637 693.93973 1643.3232326 682.09527588 1650.07736206 C674.03736788 1654.67394223 666.00582214 1659.3132416 658 1664 C649.40477328 1669.0318069 640.7768787 1674.00389072 632.125 1678.9375 C619.79974804 1685.96603507 607.50277933 1693.04240434 595.21777344 1700.14111328 C588.72874904 1703.88978034 582.2366305 1707.63308667 575.74511719 1711.37744141 C570.35251686 1714.48818339 564.96062178 1717.60013327 559.5703125 1720.71484375 C547.76370516 1727.53502637 535.93973 1734.3232326 524.09527588 1741.07736206 C516.03736788 1745.67394223 508.00582214 1750.3132416 500 1755 C491.40477328 1760.0318069 482.7768787 1765.00389072 474.125 1769.9375 C465.02920013 1775.12442426 455.94287737 1780.32681506 446.875 1785.5625 C445.80894531 1786.17802734 444.74289062 1786.79355469 443.64453125 1787.42773438 C440.42942477 1789.28470194 437.21464622 1791.14223579 434 1793 C420.05155632 1801.06089304 406.08996112 1809.09709426 392.09527588 1817.07736206 C384.03736788 1821.67394223 376.00582214 1826.3132416 368 1831 C359.40477328 1836.0318069 350.7768787 1841.00389072 342.125 1845.9375 C333.02920013 1851.12442426 323.94287737 1856.32681506 314.875 1861.5625 C313.80894531 1862.17802734 312.74289062 1862.79355469 311.64453125 1863.42773438 C308.42942477 1865.28470194 305.21464622 1867.14223579 302 1869 C288.05155632 1877.06089304 274.08996112 1885.09709426 260.09527588 1893.07736206 C252.03736788 1897.67394223 244.00582214 1902.3132416 236 1907 C227.40477328 1912.0318069 218.7768787 1917.00389072 210.125 1921.9375 C197.79974804 1928.96603507 185.50277933 1936.04240434 173.21777344 1943.14111328 C167.81329355 1946.26324605 162.40652588 1949.38141204 157 1952.5 C154.8333225 1953.74998122 152.66665583 1954.99998121 150.5 1956.25 C131 1967.5 131 1967.5 111.5 1978.75 C110.42709717 1979.3689917 109.35419434 1979.9879834 108.2487793 1980.62573242 C106.08621417 1981.8733474 103.92361661 1983.12090616 101.76098633 1984.3684082 C95.17083526 1988.17001753 88.58195149 1991.97381225 81.99389648 1995.77905273 C78.73151292 1997.6620958 75.46745211 1999.54220362 72.203125 2001.421875 C68.22716483 2003.71181114 64.25880253 2006.01400543 60.296875 2008.328125 C31.28718938 2025.21673572 0.01703363 2037.94839815 -34 2039 C-34.9796875 2039.03996094 -35.959375 2039.07992188 -36.96875 2039.12109375 C-80.42716687 2040.0539133 -118.51993148 2022.7240348 -155.05712891 2000.76171875 C-159.97170419 1997.81966008 -164.92448049 1994.9435168 -169.875 1992.0625 C-170.86008545 1991.48765869 -171.8451709 1990.91281738 -172.86010742 1990.32055664 C-181.31923964 1985.38600562 -189.80255577 1980.49383592 -198.28857422 1975.60571289 C-205.53922037 1971.42672377 -212.77468179 1967.22261177 -220 1963 C-231.54722486 1956.25286886 -243.12902119 1949.5666063 -254.71777344 1942.89111328 C-260.14659946 1939.76319849 -265.57316556 1936.63136837 -271 1933.5 C-272.07378906 1932.88060547 -273.14757812 1932.26121094 -274.25390625 1931.62304688 C-279.64687516 1928.51221667 -285.03906364 1925.40004851 -290.4296875 1922.28515625 C-302.23629484 1915.46497363 -314.06027 1908.6767674 -325.90472412 1901.92263794 C-334.94471708 1896.76583392 -343.94525321 1891.54456231 -352.92675781 1886.28662109 C-360.54905778 1881.83083656 -368.20531311 1877.43602854 -375.875 1873.0625 C-390.34950369 1864.80834364 -404.78221846 1856.48282628 -419.20898438 1848.14550781 C-431.45658605 1841.0687021 -443.71475118 1834.01123553 -456 1827 C-470.43125789 1818.76402941 -484.8225623 1810.45951132 -499.20898438 1802.14550781 C-511.45658605 1795.0687021 -523.71475118 1788.01123553 -536 1781 C-550.43125789 1772.76402941 -564.8225623 1764.45951132 -579.20898438 1756.14550781 C-591.45658605 1749.0687021 -603.71475118 1742.01123553 -616 1735 C-630.43125789 1726.76402941 -644.8225623 1718.45951132 -659.20898438 1710.14550781 C-671.45658605 1703.0687021 -683.71475118 1696.01123553 -696 1689 C-708.28241289 1681.99038295 -720.53757795 1674.9342758 -732.78222656 1667.85888672 C-738.18670645 1664.73675395 -743.59347412 1661.61858796 -749 1658.5 C-751.1666775 1657.25001878 -753.33334417 1656.00001879 -755.5 1654.75 C-756.5725 1654.13125 -757.645 1653.5125 -758.75 1652.875 C-779.33333333 1641 -799.91666667 1629.125 -820.5 1617.25 C-821.57362793 1616.63068604 -822.64725586 1616.01137207 -823.75341797 1615.37329102 C-825.90899529 1614.12951415 -828.06427136 1612.88521501 -830.21923828 1611.64038086 C-835.21826509 1608.75347504 -840.21977468 1605.87125705 -845.23284912 1603.00881958 C-846.98412294 1602.00851263 -848.73438973 1601.00646549 -850.484375 1600.00390625 C-852.66210006 1598.75698303 -854.84163872 1597.51321894 -857.0234375 1596.2734375 C-866.72535675 1590.7098369 -876.17906382 1584.7234251 -884.9375 1577.75 C-885.51540283 1577.29093262 -886.09330566 1576.83186523 -886.6887207 1576.35888672 C-922.99718076 1547.14427535 -943.57463004 1507.26511622 -948.80849112 1461.0334043 C-949.35988621 1455.17879761 -949.27404056 1449.29704995 -949.25447559 1443.42280388 C-949.25687163 1441.90578201 -949.26014077 1440.38876132 -949.26419219 1438.87174296 C-949.27275097 1434.72943716 -949.26901144 1430.58722284 -949.26313647 1426.44491579 C-949.25894521 1421.92822557 -949.26637994 1417.4115514 -949.27228898 1412.89486516 C-949.28103365 1404.98725347 -949.28236926 1397.0796677 -949.27878571 1389.17205238 C-949.27347074 1377.41268925 -949.27958202 1365.65335113 -949.28786864 1353.89399072 C-949.30310081 1331.66768633 -949.30481448 1309.44139335 -949.30234561 1287.21508484 C-949.30051213 1270.04933459 -949.30227373 1252.88358807 -949.30657005 1235.71783829 C-949.30717246 1233.25061764 -949.30777366 1230.78339698 -949.30837366 1228.31617633 C-949.30928092 1224.59817888 -949.31018959 1220.88018143 -949.31110601 1217.16218398 C-949.31953449 1182.59791372 -949.32387198 1148.03364485 -949.31969929 1113.4693737 C-949.31954291 1112.16662792 -949.31938654 1110.86388214 -949.31922542 1109.52165921 C-949.31841965 1102.91901581 -949.31757388 1096.31637241 -949.31671212 1089.71372901 C-949.31654103 1088.40245353 -949.31636994 1087.09117804 -949.31619367 1085.74016694 C-949.31584701 1083.08844953 -949.31549848 1080.43673212 -949.31514808 1077.78501471 C-949.30979156 1036.52951744 -949.31771977 995.27404848 -949.33618164 954.01855469 C-949.35690603 907.65300127 -949.36762347 861.28746109 -949.36360615 814.92190278 C-949.36321082 809.97628729 -949.36284927 805.0306718 -949.36250877 800.0850563 C-949.36241804 798.86734782 -949.36232731 797.64963933 -949.36223383 796.39503059 C-949.36106872 778.0266322 -949.36770964 759.65824719 -949.37832069 741.28985214 C-949.39037948 720.39419353 -949.39192385 699.49856437 -949.37953053 678.60290532 C-949.37290895 666.9161863 -949.37451682 655.22953774 -949.38811904 643.54282438 C-949.39638077 635.72651149 -949.39364362 627.91025122 -949.38214377 620.09394258 C-949.37590443 615.6470718 -949.37424209 611.20033823 -949.38600711 606.75347553 C-949.42902215 589.32736983 -949.42040282 572.16996407 -946 555 C-945.76858207 553.8287674 -945.53716413 552.65753481 -945.29873353 551.45081031 C-944.73543098 548.77269944 -944.08808295 546.14185567 -943.375 543.5 C-942.99649902 542.08436768 -942.99649902 542.08436768 -942.61035156 540.64013672 C-929.40590456 493.54532245 -896.37592669 460.88063866 -855 437 C-852.9531162 435.81251517 -850.90624154 434.62501459 -848.859375 433.4375 C-843.36173812 430.25459156 -837.85538347 427.08704679 -832.34667969 423.92333984 C-826.89361377 420.78945793 -821.44708772 417.64425723 -816 414.5 C-813.83336586 413.24994361 -811.66669917 411.99994366 -809.5 410.75 C-808.4275 410.13125 -807.355 409.5125 -806.25 408.875 C-785.66666667 397 -765.08333333 385.125 -744.5 373.25 C-743.42766113 372.63133057 -742.35532227 372.01266113 -741.25048828 371.37524414 C-739.08223736 370.1243552 -736.91394303 368.87354148 -734.74560547 367.62280273 C-729.35282085 364.51201665 -723.96077907 361.39995762 -718.5703125 358.28515625 C-706.80728833 351.49001122 -695.02888953 344.72271628 -683.2300415 337.99002075 C-673.73444767 332.57110619 -664.25921566 327.11761125 -654.79345703 321.64672852 C-646.83561246 317.05056393 -638.85822801 312.48934053 -630.875 307.9375 C-622.22304049 303.00403214 -613.59527875 298.03171489 -605 293 C-596.44450589 287.99254896 -587.85975755 283.03845141 -579.25 278.125 C-578.6667395 277.79211975 -578.083479 277.4592395 -577.48254395 277.11627197 C-572.72563102 274.40199484 -567.96709282 271.69057169 -563.20849609 268.97924805 C-559.05491026 266.61248568 -554.90195739 264.24461806 -550.75 261.875 C-549.87462585 261.37543793 -549.87462585 261.37543793 -548.98156738 260.86578369 C-540.96221532 256.28714649 -532.96973138 251.66449635 -525 247 C-516.44445249 241.99263925 -507.85975845 237.03845192 -499.25 232.125 C-498.6667395 231.79211975 -498.083479 231.4592395 -497.48254395 231.11627197 C-492.72563102 228.40199484 -487.96709282 225.69057169 -483.20849609 222.97924805 C-479.05491026 220.61248568 -474.90195739 218.24461806 -470.75 215.875 C-470.16641724 215.54195862 -469.58283447 215.20891724 -468.98156738 214.86578369 C-459.98021232 209.72647333 -451.0178681 204.52288709 -442.07275391 199.28637695 C-434.45065702 194.83060464 -426.79452893 190.43593847 -419.125 186.0625 C-410.02920013 180.87557574 -400.94287737 175.67318494 -391.875 170.4375 C-390.80894531 169.82197266 -389.74289062 169.20644531 -388.64453125 168.57226562 C-385.42942477 166.71529806 -382.21464622 164.85776421 -379 163 C-365.05155632 154.93910696 -351.08996112 146.90290574 -337.09527588 138.92263794 C-329.03736788 134.32605777 -321.00582214 129.6867584 -313 125 C-304.40477328 119.9681931 -295.7768787 114.99610928 -287.125 110.0625 C-274.80258417 103.03558224 -262.50861547 95.96057463 -250.2265625 88.86328125 C-246.96475993 86.9796495 -243.70138156 85.09877679 -240.4375 83.21875 C-228.94954898 76.60041283 -217.47767529 69.95606139 -206.03198242 63.26489258 C-197.68640334 58.38986059 -189.30979711 53.56974487 -180.93066406 48.75268555 C-174.14821306 44.84373497 -167.40458357 40.87397702 -160.68334961 36.86108398 C-135.18943968 21.64957874 -109.98267469 7.33044639 -81 0 C-80.20207031 -0.21027832 -79.40414062 -0.42055664 -78.58203125 -0.63720703 C-53.79785644 -6.93801476 -24.67802036 -6.46066156 0 0 Z " fill="#390091" transform="translate(949,4)"/>
<path d="M0 0 C3.65367464 0.00566493 7.30727592 0.00233133 10.96094799 -0.0034399 C34.33056034 -0.034763 57.55201517 0.40437676 80.78271484 3.13037109 C82.62857178 3.3454834 82.62857178 3.3454834 84.51171875 3.56494141 C113.70467423 6.9902683 113.70467423 6.9902683 126.60644531 9.68994141 C129.27561463 10.23012331 131.952111 10.72317942 134.63037109 11.21630859 C155.8331453 15.14227463 176.72257774 19.8911039 197.30273438 26.35620117 C199.08772251 26.9134169 200.87552169 27.46165652 202.66503906 28.00415039 C240.50321855 39.49021802 277.30288983 53.84680784 312.48974609 71.95068359 C314.19649404 72.82877198 315.9051311 73.70319042 317.61474609 74.57568359 C330.91598394 81.36851701 344.06354104 88.29533601 356.78271484 96.13037109 C357.51055176 96.57670898 358.23838867 97.02304687 358.98828125 97.48291016 C377.46981858 108.86042127 395.45501146 121.06082617 412.78271484 134.13037109 C413.3212207 134.53529785 413.85972656 134.94022461 414.41455078 135.35742188 C432.70188215 149.14777758 450.31053778 163.83192465 467.02734375 179.48828125 C468.92451868 181.26302375 470.82804373 183.03080406 472.73193359 184.79833984 C493.53628584 204.15295462 493.53628584 204.15295462 501.75146484 213.81787109 C504.04300145 216.42669739 506.4158163 218.94730002 508.79882812 221.47241211 C514.2083855 227.2066566 519.46596699 232.97790394 524.38818359 239.14208984 C526.24376017 241.45777676 528.12011316 243.74680353 530.02099609 246.02490234 C549.84457475 269.80330967 567.54084402 295.17758264 583.90771484 321.44287109 C584.74290649 322.77753418 584.74290649 322.77753418 585.5949707 324.13916016 C586.11325439 324.97801758 586.63153809 325.816875 587.16552734 326.68115234 C587.62330566 327.42018799 588.08108398 328.15922363 588.55273438 328.9206543 C589.85552489 331.2611777 590.83982748 333.62563733 591.78271484 336.13037109 C590.83525391 336.65655029 590.83525391 336.65655029 589.86865234 337.19335938 C577.17554392 344.25092885 564.54307422 351.39181346 552.01464844 358.73852539 C544.34173916 363.23358282 536.63310558 367.66384503 528.90771484 372.06787109 C519.81174131 377.25448807 510.7255897 382.45718761 501.65771484 387.69287109 C500.59166016 388.30839844 499.52560547 388.92392578 498.42724609 389.55810547 C495.21213961 391.41507303 491.99736107 393.27260689 488.78271484 395.13037109 C474.83427117 403.19126414 460.87267596 411.22746535 446.87799072 419.20773315 C438.82008272 423.80431332 430.78853698 428.44361269 422.78271484 433.13037109 C414.18748813 438.16217799 405.55959354 443.13426181 396.90771484 448.06787109 C387.81191497 453.25479536 378.72559221 458.45718616 369.65771484 463.69287109 C368.59166016 464.30839844 367.52560547 464.92392578 366.42724609 465.55810547 C363.21213961 467.41507303 359.99736107 469.27260689 356.78271484 471.13037109 C352.4914871 473.61029851 348.19988809 476.08958046 343.90771484 478.56787109 C342.85688721 479.17469727 341.80605957 479.78152344 340.72338867 480.40673828 C334.83296305 483.80487169 328.9352155 487.18980492 323.02880859 490.56005859 C322.38488159 490.92754715 321.74095459 491.29503571 321.07751465 491.67366028 C317.9459223 493.46042021 314.81344026 495.24559638 311.6796875 497.02856445 C310.55997559 497.66673096 309.44026367 498.30489746 308.28662109 498.96240234 C307.29476807 499.52677002 306.30291504 500.0911377 305.28100586 500.67260742 C303.41101257 501.76375664 301.58415302 502.92941231 299.78271484 504.13037109 C298.79271484 504.13037109 297.80271484 504.13037109 296.78271484 504.13037109 C295.35071533 502.02886532 294.12638045 499.97762737 292.90771484 497.75537109 C280.47299565 476.14715786 264.0589709 456.99659605 246.78271484 439.13037109 C246.22165039 438.54739258 245.66058594 437.96441406 245.08251953 437.36376953 C238.94158188 431.00898611 232.71017383 424.98189937 225.76708984 419.49365234 C223.53777172 417.72828917 221.34924042 415.93984946 219.17333984 414.11083984 C209.50240916 406.02339655 199.42669757 398.87895181 188.78271484 392.13037109 C188.17169922 391.73930176 187.56068359 391.34823242 186.93115234 390.9453125 C166.42095088 377.90224996 144.45709047 367.77202973 121.78271484 359.13037109 C120.87730957 358.78176025 119.9719043 358.43314941 119.0390625 358.07397461 C71.38416257 340.17189233 17.1229918 335.73920741 -33.21728516 342.13037109 C-35.02974033 342.33909407 -36.84224168 342.54741639 -38.65478516 342.75537109 C-70.47329826 346.57560774 -101.01292123 356.07694693 -130.21728516 369.13037109 C-130.98927246 369.46891113 -131.76125977 369.80745117 -132.55664062 370.15625 C-163.04532916 383.5669184 -191.52347547 402.84554227 -216.21728516 425.13037109 C-216.81992187 425.67129395 -217.42255859 426.2122168 -218.04345703 426.76953125 C-245.56129072 451.58855555 -267.84352156 480.66657135 -285.96826172 512.91113281 C-286.74048906 514.28320993 -287.51752177 515.65260984 -288.30224609 517.01757812 C-304.12670823 544.55214224 -314.15059572 575.4807373 -320.64453125 606.43066406 C-321.11595326 608.65273764 -321.61602856 610.86247728 -322.14306641 613.07177734 C-332.43767174 658.63200506 -329.8295397 710.4352827 -317.91455078 755.43530273 C-317.3720426 757.53220324 -316.86147416 759.63737722 -316.36376953 761.74536133 C-314.12671368 771.18933442 -311.29104081 780.24358081 -307.84228516 789.31787109 C-307.58772552 789.99414551 -307.33316589 790.67041992 -307.07089233 791.3671875 C-292.10641348 830.93893422 -270.60713073 867.67159485 -242.21728516 899.13037109 C-241.6763623 899.73300781 -241.13543945 900.33564453 -240.578125 900.95654297 C-228.75306031 914.0674598 -216.12035839 926.22796115 -202.21728516 937.13037109 C-201.24919922 937.90509766 -200.28111328 938.67982422 -199.28369141 939.47802734 C-163.44869652 967.7075926 -121.48047076 988.99257989 -77.21728516 1000.13037109 C-76.20166504 1000.38802246 -75.18604492 1000.64567383 -74.13964844 1000.91113281 C-51.54223807 1006.5698768 -28.85036872 1010.23434106 -5.51416016 1010.33349609 C-4.43386536 1010.33919617 -3.35357056 1010.34489624 -2.24053955 1010.35076904 C0.03510583 1010.36015036 2.31076437 1010.3667254 4.58642578 1010.37060547 C7.98284169 1010.38022977 11.37862986 1010.41128704 14.77490234 1010.44287109 C29.66661489 1010.51519019 44.06840285 1009.40183251 58.78271484 1007.13037109 C59.84597992 1006.96967133 59.84597992 1006.96967133 60.9307251 1006.8057251 C64.79183174 1006.21473813 68.63256302 1005.54486916 72.47021484 1004.81787109 C73.59484131 1004.60549805 74.71946777 1004.393125 75.87817383 1004.17431641 C86.38941531 1002.12050701 96.59553608 999.4225253 106.78271484 996.13037109 C107.80751953 995.80020996 108.83232422 995.47004883 109.88818359 995.12988281 C124.62214795 990.32638159 138.82172484 984.8508558 152.78271484 978.13037109 C153.59369629 977.74800293 154.40467773 977.36563477 155.24023438 976.97167969 C179.33443214 965.59004862 201.1290525 950.873246 221.78271484 934.13037109 C222.31767578 933.70127441 222.85263672 933.27217773 223.40380859 932.83007812 C231.77592829 926.07250841 239.47076906 918.64837148 247.09521484 911.06787109 C248.01431641 910.15803467 248.93341797 909.24819824 249.88037109 908.31079102 C255.94024417 902.22300487 261.43657415 895.84812792 266.78271484 889.13037109 C267.78329979 887.92188429 268.78674391 886.71575255 269.79443359 885.51318359 C280.7287983 872.27800467 290.0651513 857.90212678 298.78271484 843.13037109 C302.58831718 843.71103712 305.30929184 844.79458843 308.60693359 846.76318359 C309.53957031 847.31425781 310.47220703 847.86533203 311.43310547 848.43310547 C312.93647461 849.33512695 312.93647461 849.33512695 314.47021484 850.25537109 C316.64035519 851.53995631 318.81094347 852.82378504 320.98193359 854.10693359 C322.10390137 854.77241211 323.22586914 855.43789062 324.38183594 856.12353516 C329.82428739 859.33508942 335.30381598 862.48154071 340.78271484 865.63037109 C350.1219157 871.00851769 359.43912449 876.42296935 368.74365234 881.86083984 C376.07555208 886.14259231 383.42538722 890.39248048 390.78271484 894.63037109 C400.12134691 900.00951189 409.43911802 905.42296556 418.74365234 910.86083984 C426.07555208 915.14259231 433.42538722 919.39248048 440.78271484 923.63037109 C449.13069943 928.43888953 457.46514668 933.26942792 465.78271484 938.13037109 C477.32993971 944.87750224 488.91173604 951.5637648 500.50048828 958.23925781 C507.01142741 961.99065133 513.51934678 965.74728104 520.02783203 969.50292969 C525.46856821 972.64219355 530.91002961 975.78018606 536.35302734 978.91552734 C579.46285047 1003.75342514 579.46285047 1003.75342514 592.78271484 1012.13037109 C576.92126779 1055.58412708 536.77917382 1098.70744473 505.68505859 1132.00927734 C503.86468751 1133.95894805 502.07000114 1135.92339057 500.28662109 1137.90771484 C494.25215842 1144.61999548 487.96734363 1151.05157014 481.59521484 1157.44287109 C480.75152344 1158.29115479 479.90783203 1159.13943848 479.03857422 1160.01342773 C474.6886049 1164.35271862 470.27185479 1168.54145887 465.61206055 1172.54614258 C462.82755622 1174.95754637 460.1565779 1177.48595236 457.47021484 1180.00537109 C452.72772168 1184.4126332 447.8822183 1188.621015 442.82958984 1192.67333984 C440.52742826 1194.52982655 438.25089144 1196.40532733 435.98583984 1198.30615234 C425.5640847 1207.03185904 414.8288987 1215.2124665 403.78271484 1223.13037109 C402.97962891 1223.70787109 402.17654297 1224.28537109 401.34912109 1224.88037109 C345.5240303 1264.89579617 284.53522205 1294.66102089 219.78271484 1317.13037109 C218.70153381 1317.50713486 218.70153381 1317.50713486 217.59851074 1317.89151001 C205.83163019 1321.97240251 193.95876018 1325.43102315 181.90771484 1328.56787109 C181.00829163 1328.80337677 180.10886841 1329.03888245 179.18218994 1329.28152466 C162.12893554 1333.72665646 144.98828801 1337.36576517 127.63964844 1340.44433594 C124.19030461 1341.05787285 120.74617407 1341.69434076 117.30224609 1342.33740234 C104.60596596 1344.64373162 91.86754645 1346.04681876 79.02172852 1347.18017578 C77.76336182 1347.29135742 76.50499512 1347.40253906 75.20849609 1347.51708984 C74.08870361 1347.61207764 72.96891113 1347.70706543 71.81518555 1347.80493164 C68.90041481 1348.0630687 68.90041481 1348.0630687 66.54777527 1348.61621094 C55.04721145 1350.75472901 42.82594406 1350.2924808 31.15771484 1350.29833984 C29.59814426 1350.30157288 28.03857394 1350.30493827 26.47900391 1350.3084259 C23.22509056 1350.31436164 19.97120352 1350.31627202 16.71728516 1350.31567383 C13.45616013 1350.31559329 10.19517777 1350.32242835 6.93408203 1350.33618164 C-20.43066834 1350.44965169 -47.72824013 1349.84629222 -74.90478516 1346.31787109 C-75.57142181 1346.23355835 -76.23805847 1346.14924561 -76.92489624 1346.06237793 C-139.57231614 1338.12600841 -201.38376396 1321.54642933 -259.21728516 1296.13037109 C-260.74119873 1295.46255615 -260.74119873 1295.46255615 -262.29589844 1294.78125 C-287.08103551 1283.84079319 -311.28982536 1271.75579366 -334.49462891 1257.76513672 C-337.10971667 1256.19495848 -339.73836095 1254.65091908 -342.37353516 1253.11474609 C-366.48899799 1238.98620991 -389.46345386 1222.67068428 -411.21728516 1205.13037109 C-412.15830078 1204.37240234 -413.09931641 1203.61443359 -414.06884766 1202.83349609 C-424.09977348 1194.68156214 -433.98341966 1186.37781464 -443.48681641 1177.61474609 C-445.58713478 1175.7037268 -447.71035135 1173.84355797 -449.86230469 1171.99243164 C-454.29485351 1168.1169375 -458.47113388 1164.02095218 -462.62744141 1159.85302734 C-463.39857773 1159.08284775 -464.16971405 1158.31266815 -464.96421814 1157.51914978 C-466.58308669 1155.90095736 -468.20071066 1154.28151897 -469.81713867 1152.66088867 C-472.27297234 1150.19969877 -474.7340988 1147.74389301 -477.19580078 1145.28857422 C-478.77750169 1143.70621243 -480.35889233 1142.12354042 -481.93994141 1140.54052734 C-483.02928734 1139.45421776 -483.02928734 1139.45421776 -484.14064026 1138.34596252 C-488.69954232 1133.76636568 -493.00346272 1129.02751491 -497.21728516 1124.13037109 C-498.67174033 1122.52268737 -500.12949411 1120.91797395 -501.59228516 1119.31787109 C-506.32300018 1114.06861226 -510.78812209 1108.63478114 -515.21728516 1103.13037109 C-516.13102958 1102.00901808 -517.04510655 1100.88793598 -517.95947266 1099.76708984 C-539.95045911 1072.6898786 -559.57110085 1043.86213848 -576.82421875 1013.56054688 C-578.22655033 1011.11420818 -579.65078677 1008.6818483 -581.08056641 1006.25146484 C-603.37223383 968.16723423 -620.19422833 927.48379619 -634.15478516 885.69287109 C-634.38248596 885.01203461 -634.61018677 884.33119812 -634.8447876 883.62973022 C-637.87728165 874.52879421 -640.63848576 865.37112606 -643.21728516 856.13037109 C-643.77574774 854.18892711 -644.33433636 852.24751937 -644.89306641 850.30615234 C-649.66066654 833.38872237 -653.21412297 816.31843291 -656.47119141 799.06005859 C-657.09647883 795.76665994 -657.74470917 792.4794033 -658.40478516 789.19287109 C-660.76763566 777.04409513 -662.10212909 764.80960449 -663.34228516 752.50537109 C-663.42296234 751.71006989 -663.50363953 750.91476868 -663.58676147 750.09536743 C-664.18592322 744.11155141 -664.71980907 738.12346391 -665.21728516 732.13037109 C-665.30629089 731.05998596 -665.39529663 729.98960083 -665.48699951 728.88677979 C-666.99007831 710.3319058 -667.61737606 691.86856956 -667.59228516 673.25537109 C-667.59269733 671.91588337 -667.5931557 670.57639565 -667.59365845 669.23690796 C-667.58579784 651.08348475 -667.01060557 633.0344168 -665.40478516 614.94287109 C-665.32210388 614.00711243 -665.23942261 613.07135376 -665.15423584 612.10723877 C-664.15150148 601.09870924 -662.70783392 590.20707897 -660.88208008 579.30566406 C-660.23080067 575.36125566 -659.76681985 571.41796009 -659.34228516 567.44287109 C-658.01370559 556.53339658 -655.5752094 545.85560964 -653.21728516 535.13037109 C-652.81219727 533.26396973 -652.81219727 533.26396973 -652.39892578 531.35986328 C-648.87331084 515.12437151 -645.17698963 498.9976963 -640.21728516 483.13037109 C-640.00652344 482.45167969 -639.79576172 481.77298828 -639.57861328 481.07373047 C-623.9491252 430.77042009 -603.67280734 382.74188542 -577.21728516 337.13037109 C-576.86371948 336.5149646 -576.51015381 335.89955811 -576.14587402 335.26550293 C-569.65776036 323.97975786 -562.72233607 313.06203373 -555.46728516 302.25537109 C-554.9422641 301.47077515 -554.41724304 300.6861792 -553.87631226 299.87780762 C-542.5230714 282.92219771 -530.6591972 266.57379745 -517.64111328 250.85400391 C-515.62888043 248.41807045 -513.64420766 245.95994634 -511.65478516 243.50537109 C-496.93350004 225.5838066 -481.09009655 208.91906142 -464.71728516 192.50537109 C-464.10900879 191.89441589 -463.50073242 191.28346069 -462.87402344 190.6539917 C-456.49701637 184.25568491 -450.10324647 177.98538919 -443.21728516 172.13037109 C-441.44158295 170.51069293 -439.67020208 168.88625391 -437.90478516 167.25537109 C-432.50243169 162.33470895 -426.91628512 157.70152179 -421.21728516 153.13037109 C-420.1088639 152.22975797 -419.00080722 151.32869601 -417.89306641 150.42724609 C-402.52101416 137.9658783 -386.69354201 126.0939679 -370.21728516 115.13037109 C-369.4813916 114.63891602 -368.74549805 114.14746094 -367.98730469 113.64111328 C-345.78565019 98.86483914 -322.8580795 85.46584702 -299.21728516 73.13037109 C-298.29415527 72.64616699 -297.37102539 72.16196289 -296.41992188 71.66308594 C-265.49518496 55.52623198 -232.77687755 42.50906978 -199.57470703 31.88916016 C-197.30930508 31.15998977 -195.05201431 30.40970053 -192.79541016 29.65380859 C-159.04345315 18.48522335 -124.04620568 11.32637402 -88.90478516 6.31787109 C-87.87387756 6.1706662 -86.84296997 6.0234613 -85.78082275 5.87179565 C-72.28990434 3.96192132 -58.79434324 2.29099445 -45.21728516 1.13037109 C-43.93893799 1.01862549 -42.66059082 0.90687988 -41.34350586 0.79174805 C-27.58832593 -0.20683058 -13.78355504 -0.02145179 0 0 Z " fill="#FEFEFE" transform="translate(905.21728515625,345.86962890625)"/>
<path d="M0 0 C0.80501953 0.19835449 1.61003906 0.39670898 2.43945312 0.60107422 C25.32427191 6.33139637 45.88216754 17.10197889 65.96875 29.20166016 C71.08762656 32.23851943 76.29503667 35.11405573 81.5 38 C91.71354308 43.68484429 101.82569346 49.52736374 111.91015625 55.4375 C118.21570419 59.1321331 124.54294436 62.78852681 130.875 66.4375 C131.95515381 67.06003662 133.03530762 67.68257324 134.14819336 68.32397461 C136.33796334 69.58576826 138.52782355 70.84740534 140.71777344 72.10888672 C146.14659942 75.23680148 151.57319281 78.36858448 157 81.5 C159.16665583 82.75001879 161.3333225 84.00001878 163.5 85.25 C202.5 107.75 202.5 107.75 205.74951172 109.62475586 C207.91776264 110.8756448 210.08605697 112.12645852 212.25439453 113.37719727 C217.64717915 116.48798335 223.03922093 119.60004238 228.4296875 122.71484375 C240.23629484 129.53502637 252.06027 136.3232326 263.90472412 143.07736206 C272.94471708 148.23416608 281.94525321 153.45543769 290.92675781 158.71337891 C298.54905778 163.16916344 306.20531311 167.56397146 313.875 171.9375 C326.20025196 178.96603507 338.49722067 186.04240434 350.78222656 193.14111328 C356.18670641 196.26324603 361.59344718 199.38145881 367 202.5 C373.47766885 206.23636915 379.95489983 209.97348347 386.4296875 213.71484375 C397.60449102 220.17019142 408.79154303 226.60329344 420 233 C432.28241289 240.00961705 444.53757795 247.0657242 456.78222656 254.14111328 C462.18670645 257.26324605 467.59347412 260.38141204 473 263.5 C475.1666775 264.74998122 477.33334417 265.99998121 479.5 267.25 C480.5725 267.86875 481.645 268.4875 482.75 269.125 C492.50000001 274.75000001 492.50000001 274.75000001 495.74951172 276.62475586 C497.91776264 277.8756448 500.08605697 279.12645852 502.25439453 280.37719727 C507.64717915 283.48798335 513.03922093 286.60004238 518.4296875 289.71484375 C530.23629484 296.53502637 542.06027 303.3232326 553.90472412 310.07736206 C562.94471708 315.23416608 571.94525321 320.45543769 580.92675781 325.71337891 C588.54905778 330.16916344 596.20531311 334.56397146 603.875 338.9375 C616.20025196 345.96603507 628.49722067 353.04240434 640.78222656 360.14111328 C646.18670641 363.26324603 651.59344718 366.38145881 657 369.5 C663.47766885 373.23636915 669.95489983 376.97348347 676.4296875 380.71484375 C688.23629484 387.53502637 700.06027 394.3232326 711.90472412 401.07736206 C720.93902511 406.23091913 729.93533492 411.44650121 738.90917969 416.70458984 C745.49020303 420.55425916 752.10208791 424.34704175 758.73022461 428.11474609 C779.54258616 439.9453993 799.52350195 451.41973262 817 468 C817.49999512 468.46744629 817.99999023 468.93489258 818.51513672 469.41650391 C829.36034191 479.60882049 838.62606539 491.03204603 846 504 C846 504.66 846 505.32 846 506 C844.40885417 506.91796875 842.81770833 507.8359375 841.2265625 508.75390625 C840.18773926 509.35323975 839.14891602 509.95257324 838.07861328 510.57006836 C835.74109133 511.91861329 833.40353227 513.26709368 831.06591797 514.61547852 C825.19915714 517.99967101 819.33297885 521.38485838 813.46875 524.7734375 C801.69603959 531.5741604 789.90577681 538.34259392 778.09527588 545.07736206 C770.03736788 549.67394223 762.00582214 554.3132416 754 559 C745.40477328 564.0318069 736.7768787 569.00389072 728.125 573.9375 C719.02920013 579.12442426 709.94287737 584.32681506 700.875 589.5625 C699.80894531 590.17802734 698.74289062 590.79355469 697.64453125 591.42773438 C694.42942477 593.28470194 691.21464622 595.14223579 688 597 C674.05155632 605.06089304 660.08996112 613.09709426 646.09527588 621.07736206 C638.03736788 625.67394223 630.00582214 630.3132416 622 635 C612.2397281 640.71384619 602.43294396 646.34352414 592.60644531 651.94238281 C586.63563534 655.34541313 580.67257317 658.76081643 574.7265625 662.20703125 C574.13638336 662.54882919 573.54620422 662.89062714 572.93814087 663.24278259 C570.13166232 664.86844131 567.32664782 666.4965336 564.52392578 668.12866211 C559.09405264 671.27624399 553.651465 674.26890926 548 677 C544.1408752 671.31468222 540.45254388 665.54382034 536.85131836 659.69213867 C529.32323276 647.47426324 521.39951898 635.63301446 513 624 C512.13592529 622.79585449 512.13592529 622.79585449 511.25439453 621.56738281 C503.40367404 610.64864018 495.17427356 600.13567785 486.53076172 589.83496094 C484.40682437 587.28894609 482.33059241 584.70654348 480.25 582.125 C476.50506144 577.5377983 472.57249764 573.1500269 468.5546875 568.80078125 C466.56466776 566.61906236 464.6153449 564.41672847 462.6796875 562.1875 C458.96503654 557.92922936 455.12891512 553.79608772 451.25 549.6875 C450.55261719 548.94838379 449.85523438 548.20926758 449.13671875 547.44775391 C441.64340426 539.53181924 434.12638363 531.69325432 425.828125 524.609375 C423.97062012 522.97413566 422.23393991 521.26518207 420.5 519.5 C416.83703374 515.78786641 412.95765399 512.39319118 409 509 C407.9566862 508.09284461 406.91374621 507.18525919 405.87109375 506.27734375 C398.31516879 499.72077162 390.603363 493.41604913 382.68505859 487.30273438 C381.07325659 486.05663535 379.46810175 484.80195255 377.86328125 483.546875 C348.03428192 460.34238368 316.20164135 440.02068068 283 422 C282.06397949 421.48872559 281.12795898 420.97745117 280.16357422 420.45068359 C236.59774451 396.76104144 188.65228736 377.35096875 140.44042969 365.61767578 C138.21472244 365.05434652 136.0189742 364.43736569 133.8203125 363.77734375 C118.52147108 359.18842791 102.78169684 356.40331938 87.10986328 353.40585327 C85.0408231 353.00785273 82.97347874 352.60187158 80.90625 352.19458008 C71.73031455 350.40480711 62.53335206 349.04821167 53.25 347.9375 C51.83991538 347.76594923 50.42984065 347.59431726 49.01977539 347.42260742 C45.01438011 346.93788357 41.00749764 346.46702539 37 346 C35.99759277 345.88237305 34.99518555 345.76474609 33.96240234 345.64355469 C11.24636782 343.02582984 -11.55330689 342.81127234 -34.39526367 342.81469727 C-37.24786745 342.81477836 -40.10031004 342.80784046 -42.95288086 342.79418945 C-67.65722925 342.67796365 -92.19082571 343.50795887 -116.6796875 347.1015625 C-120.73367416 347.68595643 -124.79023683 348.23544513 -128.85307312 348.75488281 C-150.17179834 351.49130181 -170.98772938 355.53866893 -191.8951416 360.50302124 C-194.07672361 361.01811524 -196.26022806 361.52429441 -198.44433594 362.02856445 C-206.35029449 363.85855198 -214.21433428 365.76551354 -222 368.0625 C-222.98581055 368.35286133 -223.97162109 368.64322266 -224.98730469 368.94238281 C-291.94939477 388.96324691 -356.37782443 418.2196503 -414 458 C-414.77972168 458.53625 -415.55944336 459.0725 -416.36279297 459.625 C-426.79749326 466.81553371 -437.05016064 474.15152621 -447 482 C-448.14778263 482.8914688 -449.29624263 483.78206602 -450.4453125 484.671875 C-456.8524788 489.64777512 -463.14020109 494.73574541 -469.30541992 500.00878906 C-472.76056657 502.96353517 -476.26724838 505.84055552 -479.8125 508.6875 C-483.74117422 511.88168295 -487.37089272 515.21054268 -490.85546875 518.8828125 C-492.62111905 520.62594995 -494.40778992 522.20617421 -496.296875 523.80859375 C-502.50290336 529.19828463 -508.2364797 535.08780129 -514.03637695 540.90600586 C-516.05764268 542.9326298 -518.08419574 544.95385547 -520.11132812 546.97460938 C-526.2879319 553.14802767 -532.359941 559.32605032 -538 566 C-539.61967817 567.77570221 -541.24411718 569.54708307 -542.875 571.3125 C-547.79560371 576.71478931 -552.42982766 582.30028913 -557 588 C-557.93587212 589.15521193 -558.87208689 590.31014633 -559.80859375 591.46484375 C-580.37537556 616.90110367 -599.41946754 643.73020836 -615.85595703 672.03125 C-616.66541305 673.42421912 -617.4793345 674.81459784 -618.29638672 676.203125 C-662.27947459 751.00998194 -693.77504904 835.93613032 -704.2890625 925.15625 C-704.78246165 929.35624739 -705.36436643 933.53561672 -705.984375 937.71875 C-712.86414446 985.59725913 -712.05345938 1035.71920416 -707.22137451 1083.76245117 C-707.00164704 1085.98335252 -706.79577471 1088.20511414 -706.59423828 1090.42773438 C-702.63641259 1133.73872451 -693.42955143 1176.66332527 -680 1218 C-679.58281594 1219.29708651 -679.16599897 1220.59429114 -678.74951172 1221.89160156 C-664.47916721 1266.2570296 -647.07467029 1311.48839834 -622 1351 C-624.80520433 1352.87013622 -627.64363491 1354.53817545 -630.57421875 1356.203125 C-631.70408203 1356.84636719 -632.83394531 1357.48960938 -633.99804688 1358.15234375 C-634.59866943 1358.49378418 -635.19929199 1358.83522461 -635.81811523 1359.18701172 C-645.57773579 1364.73662487 -655.31243167 1370.32527722 -665 1376 C-673.59508022 1381.03205491 -682.22312376 1386.00389212 -690.875 1390.9375 C-699.97079987 1396.12442426 -709.05712263 1401.32681506 -718.125 1406.5625 C-719.72408203 1407.48579102 -719.72408203 1407.48579102 -721.35546875 1408.42773438 C-724.57057523 1410.28470194 -727.78535378 1412.14223579 -731 1414 C-744.94844368 1422.06089304 -758.91003888 1430.09709426 -772.90472412 1438.07736206 C-780.96263212 1442.67394223 -788.99417786 1447.3132416 -797 1452 C-805.59522672 1457.0318069 -814.2231213 1462.00389072 -822.875 1466.9375 C-831.97079987 1472.12442426 -841.05712263 1477.32681506 -850.125 1482.5625 C-851.19105469 1483.17802734 -852.25710938 1483.79355469 -853.35546875 1484.42773438 C-856.57057523 1486.28470194 -859.78535378 1488.14223579 -863 1490 C-867.29122774 1492.47992741 -871.58282087 1494.95921954 -875.875 1497.4375 C-876.93090332 1498.04722656 -877.98680664 1498.65695312 -879.07470703 1499.28515625 C-884.87822869 1502.63303813 -890.68852543 1505.9686841 -896.5078125 1509.2890625 C-897.13517303 1509.6470845 -897.76253357 1510.00510651 -898.40890503 1510.37397766 C-901.43417222 1512.10000941 -904.46030302 1513.82450091 -907.48779297 1515.54663086 C-913.4107205 1518.92215154 -919.28453057 1522.34877878 -925.07421875 1525.94897461 C-927 1527 -927 1527 -929 1527 C-936.12609422 1512.7116385 -941.7027575 1498.40516454 -945.25 1482.8125 C-945.40114258 1482.14935791 -945.55228516 1481.48621582 -945.70800781 1480.80297852 C-948.35460823 1468.36306039 -949.29676431 1456.11969538 -949.25447559 1443.42280388 C-949.25687163 1441.90578201 -949.26014077 1440.38876132 -949.26419219 1438.87174296 C-949.27275097 1434.72943716 -949.26901144 1430.58722284 -949.26313647 1426.44491579 C-949.25894521 1421.92822557 -949.26637994 1417.4115514 -949.27228898 1412.89486516 C-949.28103365 1404.98725347 -949.28236926 1397.0796677 -949.27878571 1389.17205238 C-949.27347074 1377.41268925 -949.27958202 1365.65335113 -949.28786864 1353.89399072 C-949.30310081 1331.66768633 -949.30481448 1309.44139335 -949.30234561 1287.21508484 C-949.30051213 1270.04933459 -949.30227373 1252.88358807 -949.30657005 1235.71783829 C-949.30717246 1233.25061764 -949.30777366 1230.78339698 -949.30837366 1228.31617633 C-949.30928092 1224.59817888 -949.31018959 1220.88018143 -949.31110601 1217.16218398 C-949.31953449 1182.59791372 -949.32387198 1148.03364485 -949.31969929 1113.4693737 C-949.31954291 1112.16662792 -949.31938654 1110.86388214 -949.31922542 1109.52165921 C-949.31841965 1102.91901581 -949.31757388 1096.31637241 -949.31671212 1089.71372901 C-949.31654103 1088.40245353 -949.31636994 1087.09117804 -949.31619367 1085.74016694 C-949.31584701 1083.08844953 -949.31549848 1080.43673212 -949.31514808 1077.78501471 C-949.30979156 1036.52951744 -949.31771977 995.27404848 -949.33618164 954.01855469 C-949.35690603 907.65300127 -949.36762347 861.28746109 -949.36360615 814.92190278 C-949.36321082 809.97628729 -949.36284927 805.0306718 -949.36250877 800.0850563 C-949.36241804 798.86734782 -949.36232731 797.64963933 -949.36223383 796.39503059 C-949.36106872 778.0266322 -949.36770964 759.65824719 -949.37832069 741.28985214 C-949.39037948 720.39419353 -949.39192385 699.49856437 -949.37953053 678.60290532 C-949.37290895 666.9161863 -949.37451682 655.22953774 -949.38811904 643.54282438 C-949.39638077 635.72651149 -949.39364362 627.91025122 -949.38214377 620.09394258 C-949.37590443 615.6470718 -949.37424209 611.20033823 -949.38600711 606.75347553 C-949.42902215 589.32736983 -949.42040282 572.16996407 -946 555 C-945.76858207 553.8287674 -945.53716413 552.65753481 -945.29873353 551.45081031 C-944.73543098 548.77269944 -944.08808295 546.14185567 -943.375 543.5 C-942.99649902 542.08436768 -942.99649902 542.08436768 -942.61035156 540.64013672 C-929.40590456 493.54532245 -896.37592669 460.88063866 -855 437 C-852.9531162 435.81251517 -850.90624154 434.62501459 -848.859375 433.4375 C-843.36173812 430.25459156 -837.85538347 427.08704679 -832.34667969 423.92333984 C-826.89361377 420.78945793 -821.44708772 417.64425723 -816 414.5 C-813.83336586 413.24994361 -811.66669917 411.99994366 -809.5 410.75 C-808.4275 410.13125 -807.355 409.5125 -806.25 408.875 C-785.66666667 397 -765.08333333 385.125 -744.5 373.25 C-743.42766113 372.63133057 -742.35532227 372.01266113 -741.25048828 371.37524414 C-739.08223736 370.1243552 -736.91394303 368.87354148 -734.74560547 367.62280273 C-729.35282085 364.51201665 -723.96077907 361.39995762 -718.5703125 358.28515625 C-706.80728833 351.49001122 -695.02888953 344.72271628 -683.2300415 337.99002075 C-673.73444767 332.57110619 -664.25921566 327.11761125 -654.79345703 321.64672852 C-646.83561246 317.05056393 -638.85822801 312.48934053 -630.875 307.9375 C-622.22304049 303.00403214 -613.59527875 298.03171489 -605 293 C-596.44450589 287.99254896 -587.85975755 283.03845141 -579.25 278.125 C-578.6667395 277.79211975 -578.083479 277.4592395 -577.48254395 277.11627197 C-572.72563102 274.40199484 -567.96709282 271.69057169 -563.20849609 268.97924805 C-559.05491026 266.61248568 -554.90195739 264.24461806 -550.75 261.875 C-549.87462585 261.37543793 -549.87462585 261.37543793 -548.98156738 260.86578369 C-540.96221532 256.28714649 -532.96973138 251.66449635 -525 247 C-516.44445249 241.99263925 -507.85975845 237.03845192 -499.25 232.125 C-498.6667395 231.79211975 -498.083479 231.4592395 -497.48254395 231.11627197 C-492.72563102 228.40199484 -487.96709282 225.69057169 -483.20849609 222.97924805 C-479.05491026 220.61248568 -474.90195739 218.24461806 -470.75 215.875 C-470.16641724 215.54195862 -469.58283447 215.20891724 -468.98156738 214.86578369 C-459.98021232 209.72647333 -451.0178681 204.52288709 -442.07275391 199.28637695 C-434.45065702 194.83060464 -426.79452893 190.43593847 -419.125 186.0625 C-410.02920013 180.87557574 -400.94287737 175.67318494 -391.875 170.4375 C-390.80894531 169.82197266 -389.74289062 169.20644531 -388.64453125 168.57226562 C-385.42942477 166.71529806 -382.21464622 164.85776421 -379 163 C-365.05155632 154.93910696 -351.08996112 146.90290574 -337.09527588 138.92263794 C-329.03736788 134.32605777 -321.00582214 129.6867584 -313 125 C-304.40477328 119.9681931 -295.7768787 114.99610928 -287.125 110.0625 C-274.80258417 103.03558224 -262.50861547 95.96057463 -250.2265625 88.86328125 C-246.96475993 86.9796495 -243.70138156 85.09877679 -240.4375 83.21875 C-228.94954898 76.60041283 -217.47767529 69.95606139 -206.03198242 63.26489258 C-197.68640334 58.38986059 -189.30979711 53.56974487 -180.93066406 48.75268555 C-174.14821306 44.84373497 -167.40458357 40.87397702 -160.68334961 36.86108398 C-135.18943968 21.64957874 -109.98267469 7.33044639 -81 0 C-80.20207031 -0.21027832 -79.40414062 -0.42055664 -78.58203125 -0.63720703 C-53.79785644 -6.93801476 -24.67802036 -6.46066156 0 0 Z " fill="#A179DC" transform="translate(949,4)"/>
<path d="M0 0 C3.08397974 1.38861769 4.10464386 4.43098598 5.57128906 7.32006836 C19.39432496 33.13164762 36.96596751 56.70595536 54.82128906 79.82006836 C55.60898682 80.84390625 55.60898682 80.84390625 56.41259766 81.88842773 C65.77742353 94.04726657 75.70596768 105.66497837 86.15332031 116.90600586 C88.13860575 119.07441426 90.06821246 121.26258675 91.984375 123.49023438 C95.78359616 127.83708126 99.79297492 131.93631197 103.87988281 136.01147461 C104.62786636 136.76041489 105.37584991 137.50935516 106.14649963 138.2809906 C107.7176137 139.85278061 109.28997299 141.42332685 110.86352539 142.99267578 C113.25228752 145.3760814 115.63566352 147.76477904 118.01855469 150.15405273 C119.55534357 151.69018073 121.09244266 153.22599845 122.62988281 154.76147461 C123.68338173 155.81800987 123.68338173 155.81800987 124.75816345 156.89588928 C129.28596942 161.4026299 133.9689131 165.66606163 138.82128906 169.82006836 C139.90372985 170.75839821 140.98583382 171.69711698 142.06738281 172.63647461 C155.61876431 184.32058954 169.33771143 195.73702775 183.7734375 206.31811523 C185.15165914 207.32894255 186.52727079 208.34333711 187.90039062 209.36108398 C206.77055893 223.34608181 226.51072486 236.03390081 246.82128906 247.82006836 C247.72943359 248.34890625 248.63757813 248.87774414 249.57324219 249.42260742 C320.50224352 290.51100703 398.64546903 318.60313882 514.50878906 336.07006836 C515.2264444 336.1532431 515.94409973 336.23641785 516.6835022 336.32211304 C539.46116283 338.93174926 562.24650093 338.98202996 585.14282227 338.95043945 C589.31191591 338.94471983 593.48094545 338.94805059 597.65003681 338.95401192 C600.91986048 338.95766255 604.18966947 338.95645891 607.45949364 338.95388412 C608.99532263 338.95322847 610.53115306 338.95399414 612.06698036 338.95636368 C626.38430084 338.97363515 640.54401393 338.26729232 654.75878906 336.44506836 C656.93320399 336.17242014 659.1076851 335.90029929 661.28222656 335.62866211 C662.37116211 335.49186035 663.46009766 335.35505859 664.58203125 335.21411133 C667.67252464 334.83816497 670.76448522 334.49613541 673.86035156 334.16772461 C698.43768443 331.51379665 722.64710225 326.72087885 746.59521484 320.62963867 C749.99614882 319.77618801 753.40561202 318.96497763 756.81738281 318.15600586 C847.41709849 296.24482413 933.19122601 251.67390312 1045.28613281 160.24194336 C1047.64865417 158.05375564 1050.05276311 155.91174171 1052.44628906 153.75756836 C1057.98138293 148.68804314 1063.31825545 143.43126451 1068.63378906 138.13256836 C1069.83479248 136.93845337 1069.83479248 136.93845337 1071.06005859 135.72021484 C1075.27462169 131.49467404 1079.32717495 127.19087951 1083.21948242 122.66699219 C1085.63832599 119.87800398 1088.17120733 117.19996967 1090.69628906 114.50756836 C1095.10355117 109.7650752 1099.31193297 104.91957181 1103.36425781 99.86694336 C1105.22074452 97.56478178 1107.0962453 95.28824495 1108.99707031 93.02319336 C1117.72277701 82.60143822 1125.90338447 71.86625222 1133.82128906 60.82006836 C1134.39878906 60.01698242 1134.97628906 59.21389648 1135.57128906 58.38647461 C1144.80913219 45.49885864 1153.41744807 32.26317824 1161.82128906 18.82006836 C1162.85503332 17.17156193 1163.88888281 15.52312149 1164.92285156 13.87475586 C1167.22903379 10.19400705 1169.52777167 6.50872076 1171.82128906 2.82006836 C1180.78317478 7.10927515 1189.36634347 11.8121663 1197.89550781 16.89819336 C1203.68946683 20.35032225 1209.53766609 23.70729995 1215.38378906 27.07006836 C1223.87802759 31.96121295 1232.35899877 36.87385442 1240.82128906 41.82006836 C1249.13877917 46.68114417 1257.4733054 51.51155045 1265.82128906 56.32006836 C1274.16927365 61.1285868 1282.5037209 65.95912519 1290.82128906 70.82006836 C1303.4587236 78.20421729 1316.13804205 85.51496971 1328.82128906 92.82006836 C1342.49541086 100.6958756 1356.1586588 108.58862682 1369.78271484 116.55078125 C1377.11441385 120.83251753 1384.46411887 125.08226843 1391.82128906 129.32006836 C1400.16927363 134.12858678 1408.50372478 138.95911851 1416.82128906 143.82006836 C1434.09902854 153.91573371 1451.42928229 163.92243541 1468.82128906 173.82006836 C1467.62417575 185.07625883 1457.97366547 194.54325028 1450.82128906 202.82006836 C1450.18102783 203.56305176 1450.18102783 203.56305176 1449.52783203 204.32104492 C1443.2015831 211.60721828 1436.45038647 217.89146586 1428.82128906 223.82006836 C1427.85892334 224.58867188 1426.89655762 225.35727539 1425.9050293 226.14916992 C1418.36840724 232.09646874 1410.60882743 237.1835633 1402.25878906 241.94506836 C1400.99703714 242.67388059 1399.73573538 243.40347262 1398.47485352 244.13378906 C1394.59760408 246.37532819 1390.71004743 248.59857608 1386.82128906 250.82006836 C1385.5952899 251.52190086 1384.36937682 252.22388374 1383.14355469 252.92602539 C1378.42940615 255.62547992 1373.71371315 258.3221894 1368.99291992 261.01000977 C1361.57563859 265.23519526 1354.18744813 269.5064358 1346.82128906 273.82006836 C1338.22613914 278.85200502 1329.59816642 283.82395984 1320.94628906 288.75756836 C1311.85048919 293.94449262 1302.76416643 299.14688342 1293.69628906 304.38256836 C1292.63023438 304.9980957 1291.56417969 305.61362305 1290.46582031 306.24780273 C1287.25071383 308.1047703 1284.03593529 309.96230415 1280.82128906 311.82006836 C1266.87284539 319.8809614 1252.91125018 327.91716262 1238.91656494 335.89743042 C1230.85865694 340.49401059 1222.8271112 345.13330995 1214.82128906 349.82006836 C1206.22606235 354.85187526 1197.59816776 359.82395908 1188.94628906 364.75756836 C1176.62103711 371.78610343 1164.32406839 378.8624727 1152.0390625 385.96118164 C1145.5500381 389.7098487 1139.05791956 393.45315503 1132.56640625 397.19750977 C1127.17380592 400.30825175 1121.78191084 403.42020163 1116.39160156 406.53491211 C1104.58499423 413.35509473 1092.76101906 420.14330096 1080.91656494 426.89743042 C1072.85865694 431.49401059 1064.8271112 436.13330995 1056.82128906 440.82006836 C1048.22606235 445.85187526 1039.59816776 450.82395908 1030.94628906 455.75756836 C1021.85048919 460.94449262 1012.76416643 466.14688342 1003.69628906 471.38256836 C1002.63023438 471.9980957 1001.56417969 472.61362305 1000.46582031 473.24780273 C997.25071383 475.1047703 994.03593529 476.96230415 990.82128906 478.82006836 C976.87284539 486.8809614 962.91125018 494.91716262 948.91656494 502.89743042 C940.85865694 507.49401059 932.8271112 512.13330995 924.82128906 516.82006836 C916.22606235 521.85187526 907.59816776 526.82395908 898.94628906 531.75756836 C886.62103711 538.78610343 874.32406839 545.8624727 862.0390625 552.96118164 C856.63458261 556.08331441 851.22781494 559.2014804 845.82128906 562.32006836 C843.65461156 563.57004958 841.48794489 564.82004957 839.32128906 566.07006836 C780.82128906 599.82006836 780.82128906 599.82006836 722.32128906 633.57006836 C721.2482251 634.18922119 720.17516113 634.80837402 719.06958008 635.44628906 C716.90888107 636.69269003 714.74791213 637.93862319 712.58666992 639.18408203 C707.07635948 642.36031089 701.57137876 645.545229 696.07519531 648.74584961 C662.30078765 668.39217596 628.59740473 685.18822772 588.82128906 686.82006836 C587.34402344 686.88194336 587.34402344 686.88194336 585.83691406 686.94506836 C542.36676538 687.82771097 504.3224012 670.55675237 467.76416016 648.58178711 C462.84958488 645.63972844 457.89680858 642.76358516 452.94628906 639.88256836 C451.96120361 639.30772705 450.97611816 638.73288574 449.96118164 638.140625 C441.50204943 633.20607398 433.01873329 628.31390427 424.53271484 623.42578125 C417.28206869 619.24679213 410.04660727 615.04268013 402.82128906 610.82006836 C391.2740642 604.07293722 379.69226787 597.38667465 368.10351562 590.71118164 C362.6746896 587.58326685 357.2481235 584.45143672 351.82128906 581.32006836 C350.7475 580.70067383 349.67371094 580.0812793 348.56738281 579.44311523 C343.17441391 576.33228503 337.78222543 573.22011687 332.39160156 570.10522461 C320.58499423 563.28504199 308.76101906 556.49683576 296.91656494 549.7427063 C287.87657199 544.58590228 278.87603585 539.36463067 269.89453125 534.10668945 C262.27223128 529.65090491 254.61597595 525.2560969 246.94628906 520.88256836 C232.47178537 512.628412 218.0390706 504.30289464 203.61230469 495.96557617 C191.36470301 488.88877046 179.10653788 481.83130389 166.82128906 474.82006836 C152.39003117 466.58409777 137.99872676 458.27957968 123.61230469 449.96557617 C111.36470301 442.88877046 99.10653788 435.83130389 86.82128906 428.82006836 C72.39003117 420.58409777 57.99872676 412.27957968 43.61230469 403.96557617 C31.36470301 396.88877046 19.10653788 389.83130389 6.82128906 382.82006836 C-7.60996883 374.58409777 -22.00127324 366.27957968 -36.38769531 357.96557617 C-48.63529699 350.88877046 -60.89346212 343.83130389 -73.17871094 336.82006836 C-85.46112383 329.81045131 -97.71628888 322.75434416 -109.9609375 315.67895508 C-115.36541739 312.55682231 -120.77218506 309.43865632 -126.17871094 306.32006836 C-128.34538844 305.07008714 -130.51205511 303.82008715 -132.67871094 302.57006836 C-133.75121094 301.95131836 -134.82371094 301.33256836 -135.92871094 300.69506836 C-156.51204427 288.82006836 -177.0953776 276.94506836 -197.67871094 265.07006836 C-198.75233887 264.45075439 -199.8259668 263.83144043 -200.93212891 263.19335938 C-203.08770623 261.94958251 -205.24298229 260.70528337 -207.39794922 259.46044922 C-212.39697602 256.5735434 -217.39848562 253.69132541 -222.41156006 250.82888794 C-224.16283388 249.82858099 -225.91310067 248.82653385 -227.66308594 247.82397461 C-229.840811 246.57705139 -232.02034966 245.3332873 -234.20214844 244.09350586 C-243.90406769 238.52990526 -253.35777475 232.54349346 -262.11621094 225.57006836 C-262.69411377 225.11100098 -263.2720166 224.65193359 -263.86743164 224.17895508 C-280.07726708 211.13615343 -297.59916276 194.67700461 -305.17871094 174.82006836 C-296.55178485 169.44073882 -287.83734462 164.27063066 -278.99121094 159.25756836 C-276.52053497 157.85241359 -274.05082988 156.44555563 -271.58105469 155.03881836 C-270.9609552 154.68589218 -270.34085571 154.332966 -269.70196533 153.96934509 C-263.47233009 150.4222278 -257.26120873 146.84327172 -251.05371094 143.25756836 C-249.98999268 142.64324951 -248.92627441 142.02893066 -247.83032227 141.39599609 C-245.68561506 140.15714613 -243.54100214 138.91813295 -241.39648438 137.67895508 C-234.90745998 133.93028802 -228.41534144 130.18698169 -221.92382812 126.44262695 C-216.5312278 123.33188497 -211.13933272 120.21993509 -205.74902344 117.10522461 C-193.9424161 110.28504199 -182.11844094 103.49683576 -170.27398682 96.7427063 C-162.21607881 92.14612613 -154.18453307 87.50682676 -146.17871094 82.82006836 C-137.58348422 77.78826146 -128.95558964 72.81617764 -120.30371094 67.88256836 C-111.20791106 62.6956441 -102.12158831 57.4932533 -93.05371094 52.25756836 C-91.98765625 51.64204102 -90.92160156 51.02651367 -89.82324219 50.39233398 C-86.6081357 48.53536642 -83.39335716 46.67783257 -80.17871094 44.82006836 C-56.93616565 31.38805573 -56.93616565 31.38805573 -47.16308594 25.81225586 C-46.57647186 25.47747223 -45.98985779 25.1426886 -45.38546753 24.79776001 C-42.44245836 23.11864334 -39.49823911 21.44169832 -36.55224609 19.76782227 C-30.73835119 16.45691654 -24.95430531 13.10644028 -19.21777344 9.66381836 C-18.11578613 9.00647705 -17.01379883 8.34913574 -15.87841797 7.671875 C-13.79231139 6.42380834 -11.71220865 5.16563423 -9.63916016 3.89599609 C-8.71377441 3.34371338 -7.78838867 2.79143066 -6.83496094 2.22241211 C-6.02865234 1.73248779 -5.22234375 1.24256348 -4.39160156 0.73779297 C-2.17871094 -0.17993164 -2.17871094 -0.17993164 0 0 Z " fill="#280068" transform="translate(326.1787109375,1356.179931640625)"/>
<path d="M0 0 C1.24615585 0.00040787 1.24615585 0.00040787 2.51748657 0.00082397 C16.64804207 0.02199398 30.64204726 0.53169251 44.6875 2.1875 C45.47898437 2.27870117 46.27046875 2.36990234 47.0859375 2.46386719 C98.04767829 8.66015393 148.63504751 28.98440799 190.6875 58.1875 C191.23470703 58.56342285 191.78191406 58.9393457 192.34570312 59.32666016 C200.58009474 64.99650759 208.28386299 71.05751216 215.82861328 77.6159668 C217.25153756 78.81893023 218.69700015 79.99528014 220.15185547 81.15942383 C227.00519744 86.64488775 233.27595808 92.50250412 239.4375 98.75 C240.33082031 99.64396484 241.22414063 100.53792969 242.14453125 101.45898438 C247.19382877 106.54174558 252.0622308 111.71624998 256.6875 117.1875 C257.19265137 117.78054932 257.69780273 118.37359863 258.21826172 118.98461914 C270.3557666 133.35383338 281.72679298 148.6135607 290.6875 165.1875 C286.68097202 168.62611236 282.49462099 171.07754043 277.875 173.5625 C270.61730756 177.53035784 263.44650397 181.62651912 256.3125 185.8125 C247.5100683 190.97147318 238.67616761 196.07212251 229.8125 201.125 C220.71652133 206.31160792 211.63037479 211.51431655 202.5625 216.75 C201.49644531 217.36552734 200.43039062 217.98105469 199.33203125 218.61523438 C196.11692477 220.47220194 192.90214622 222.32973579 189.6875 224.1875 C175.73905632 232.24839304 161.77746112 240.28459426 147.78277588 248.26486206 C139.72486788 252.86144223 131.69332214 257.5007416 123.6875 262.1875 C115.09227328 267.2193069 106.4643787 272.19139072 97.8125 277.125 C85.48724804 284.15353507 73.19027933 291.22990434 60.90527344 298.32861328 C54.41624904 302.07728034 47.9241305 305.82058667 41.43261719 309.56494141 C36.04001686 312.67568339 30.64812178 315.78763327 25.2578125 318.90234375 C13.49543427 325.69711564 1.71734493 332.46343156 -10.08044434 339.19647217 C-21.77317617 345.87035605 -33.43761332 352.59272282 -45.09472656 359.32861328 C-50.49920645 362.45074605 -55.90597412 365.56891204 -61.3125 368.6875 C-63.4791775 369.93748122 -65.64584417 371.18748121 -67.8125 372.4375 C-80.8125 379.9375 -93.8125 387.4375 -106.8125 394.9375 C-107.88483887 395.55616943 -108.95717773 396.17483887 -110.06201172 396.81225586 C-112.23026264 398.0631448 -114.39855697 399.31395852 -116.56689453 400.56469727 C-121.95967915 403.67548335 -127.35172093 406.78754238 -132.7421875 409.90234375 C-144.54879484 416.72252637 -156.37277 423.5107326 -168.21722412 430.26486206 C-176.27513212 434.86144223 -184.30667786 439.5007416 -192.3125 444.1875 C-200.90772672 449.2193069 -209.5356213 454.19139072 -218.1875 459.125 C-230.48197764 466.13598587 -242.74821844 473.19470599 -255.00244141 480.27587891 C-258.51483353 482.30435142 -262.02869071 484.33026619 -265.54296875 486.35546875 C-266.74007654 487.04548299 -267.93717946 487.73550568 -269.13427734 488.42553711 C-271.40652972 489.73530755 -273.6790259 491.04465172 -275.95166016 492.35375977 C-276.97437012 492.94342529 -277.99708008 493.53309082 -279.05078125 494.140625 C-279.94837158 494.65786133 -280.84596191 495.17509766 -281.77075195 495.70800781 C-283.5364205 496.73576225 -285.28404305 497.79490082 -287.01635742 498.87792969 C-289.3125 500.1875 -289.3125 500.1875 -291.3125 500.1875 C-291.6425 500.8475 -291.9725 501.5075 -292.3125 502.1875 C-300.01634006 487.20203708 -307.57154772 472.31375805 -313.44775391 456.49804688 C-314.31888597 454.17043709 -315.22437263 451.8586055 -316.13671875 449.546875 C-323.45360841 430.74467388 -328.15540536 411.09244175 -331.3125 391.1875 C-331.58755371 389.49294678 -331.58755371 389.49294678 -331.86816406 387.76416016 C-338.45756747 345.72465838 -337.86770951 301.05386291 -326.98339844 259.76220703 C-326.27831602 257.05631212 -325.62471113 254.34115435 -324.9765625 251.62109375 C-315.72640003 213.51745227 -298.97833809 177.18166025 -276.3125 145.1875 C-275.78930176 144.44790039 -275.26610352 143.70830078 -274.72705078 142.94628906 C-266.81643796 131.83718603 -258.4716732 121.28998614 -249.3125 111.1875 C-248.51900146 110.30940674 -248.51900146 110.30940674 -247.70947266 109.41357422 C-239.33838897 100.17695786 -230.80085069 91.28573458 -221.3125 83.1875 C-220.40113281 82.38699219 -219.48976563 81.58648438 -218.55078125 80.76171875 C-209.58212002 72.94532643 -200.0611471 65.99545748 -190.3125 59.1875 C-189.65991211 58.72956055 -189.00732422 58.27162109 -188.33496094 57.79980469 C-179.04571191 51.31814526 -169.39250671 45.69676589 -159.42041016 40.33398438 C-157.55067202 39.31704086 -155.70138195 38.26270004 -153.85546875 37.203125 C-136.66713236 27.5184279 -117.24418807 19.68508629 -98.3125 14.1875 C-97.51924316 13.95369629 -96.72598633 13.71989258 -95.90869141 13.47900391 C-64.58583062 4.31684981 -32.6182591 -0.04032225 0 0 Z " fill="#A179DB" transform="translate(912.3125,684.8125)"/>
<path d="M0 0 C2.2980957 1.0847168 2.2980957 1.0847168 4.67578125 2.44921875 C5.57337158 2.9601709 6.47096191 3.47112305 7.39575195 3.99755859 C8.35827881 4.55523926 9.32080566 5.11291992 10.3125 5.6875 C11.32723389 6.26838379 12.34196777 6.84926758 13.38745117 7.44775391 C22.56506725 12.71368018 31.70070861 18.05275229 40.83203125 23.3984375 C47.20565088 27.12630766 53.60127367 30.81543777 60 34.5 C68.34805709 39.30839164 76.68243268 44.13905732 85 49 C97.63743454 56.38414893 110.31675298 63.69490135 123 71 C136.67554314 78.87662589 150.33960958 86.77120092 163.96582031 94.73291016 C175.61659185 101.53587623 187.30903744 108.26642186 199 115 C212.66757989 122.87203934 226.32525729 130.75940844 239.94165039 138.71972656 C247.46461585 143.11427487 255.01083655 147.46749116 262.5625 151.8125 C271.76849707 157.11108696 280.92759731 162.47571519 290 168 C289.33607462 172.10612312 287.19026819 175.38207081 285.0625 178.875 C284.46187744 179.86584595 284.46187744 179.86584595 283.84912109 180.87670898 C276.46450645 192.8928142 267.8694378 204.05227603 259 215 C258.5762207 215.52964355 258.15244141 216.05928711 257.71582031 216.60498047 C250.81721932 225.17653197 243.18872558 233.01846115 235.4375 240.8125 C234.95462524 241.30064178 234.47175049 241.78878357 233.97424316 242.29171753 C227.33012867 248.99180591 220.38920377 255.13023546 213 261 C211.79140989 262.00046016 210.58527034 263.00389648 209.3828125 264.01171875 C180.74166318 287.68441703 147.5453872 305.24657765 112.77685547 317.98095703 C110.48096949 318.82349511 108.19376581 319.68355475 105.91015625 320.55859375 C92.23429745 325.68105661 78.13856662 328.91524741 63.8125 331.625 C62.80034424 331.81900391 61.78818848 332.01300781 60.74536133 332.21289062 C57.17131587 332.86387058 53.59081525 333.45090577 50 334 C49.16351929 334.12848328 48.32703857 334.25696655 47.46520996 334.38934326 C31.63824512 336.75280221 16.1136714 337.48818764 0.125 337.375 C-1.01032166 337.3713443 -2.14564331 337.3676886 -3.31536865 337.36392212 C-18.86274963 337.30525121 -34.18246755 336.96883302 -49.55224609 334.40576172 C-51.89157475 334.01797354 -54.23142302 333.68990352 -56.58203125 333.37890625 C-109.17759258 326.04719133 -161.12816843 302.23615252 -203 270 C-203.59361328 269.54915039 -204.18722656 269.09830078 -204.79882812 268.63378906 C-212.31260294 262.92348231 -219.44170841 256.94074336 -226.328125 250.48828125 C-228.5542356 248.41513439 -230.81247618 246.41239535 -233.125 244.4375 C-240.67992076 237.87210109 -247.52964557 230.62242582 -254 223 C-255.19689453 221.63681641 -255.19689453 221.63681641 -256.41796875 220.24609375 C-268.65352703 206.2133745 -279.2420999 190.83849067 -289 175 C-289.59143799 174.0416626 -289.59143799 174.0416626 -290.19482422 173.06396484 C-293 168.36735533 -293 168.36735533 -293 165 C-292.2879541 164.59386475 -291.5759082 164.18772949 -290.84228516 163.76928711 C-276.80880782 155.76282135 -262.78829822 147.7352874 -248.79980469 139.65039062 C-240.83984034 135.05301176 -232.86035021 130.49055056 -224.875 125.9375 C-216.22304141 121.00403266 -207.59522495 116.03180587 -199 111 C-190.40477328 105.9681931 -181.7768787 100.99610928 -173.125 96.0625 C-164.02920013 90.87557574 -154.94287737 85.67318494 -145.875 80.4375 C-144.80894531 79.82197266 -143.74289062 79.20644531 -142.64453125 78.57226562 C-139.42942477 76.71529806 -136.21464622 74.85776421 -133 73 C-119.05155632 64.93910696 -105.08996112 56.90290574 -91.09527588 48.92263794 C-82.05812865 43.76745725 -73.05970895 38.54902632 -64.08203125 33.29101562 C-58.7549507 30.17590826 -53.41532548 27.08434889 -48.0546875 24.02734375 C-47.46456375 23.69078262 -46.87444 23.3542215 -46.26643372 23.00746155 C-43.29003866 21.31107648 -40.31183646 19.61793512 -37.33178711 17.92797852 C-31.6773383 14.71519559 -26.06106718 11.45447657 -20.51171875 8.0625 C-19.50447754 7.45027588 -18.49723633 6.83805176 -17.45947266 6.20727539 C-15.57765599 5.05766398 -13.7031197 3.89601804 -11.83740234 2.72045898 C-11.00547363 2.21329346 -10.17354492 1.70612793 -9.31640625 1.18359375 C-8.59912354 0.73556396 -7.88184082 0.28753418 -7.14282227 -0.17407227 C-4.32008697 -1.26206514 -2.86591849 -0.89705579 0 0 Z " fill="#280068" transform="translate(914,1020)"/>
<path d="M0 0 C15.84 0 31.68 0 48 0 C48 31.68 48 63.36 48 96 C79.68 96 111.36 96 144 96 C144 64.32 144 32.64 144 0 C159.84 0 175.68 0 192 0 C192 31.68 192 63.36 192 96 C223.68 96 255.36 96 288 96 C288 111.51 288 127.02 288 143 C256.32 143 224.64 143 192 143 C192 174.68 192 206.36 192 239 C223.68 239 255.36 239 288 239 C288 254.84 288 270.68 288 287 C256.32 287 224.64 287 192 287 C192 318.68 192 350.36 192 383 C176.16 383 160.32 383 144 383 C144 351.32 144 319.64 144 287 C112.32 287 80.64 287 48 287 C48 318.68 48 350.36 48 383 C32.16 383 16.32 383 0 383 C0 351.32 0 319.64 0 287 C-31.35 287 -62.7 287 -95 287 C-95 271.16 -95 255.32 -95 239 C-63.65 239 -32.3 239 0 239 C0 207.65 0 176.3 0 144 C-31.35 144 -62.7 144 -95 144 C-95 127.83 -95 111.66 -95 95 C-63.65 95 -32.3 95 0 95 C0 63.65 0 32.3 0 0 Z " fill="#FDFDFE" transform="translate(1387,827)"/>
<path d="M0 0 C31.68 0 63.36 0 96 0 C96 31.68 96 63.36 96 96 C64.32 96 32.64 96 0 96 C0 64.32 0 32.64 0 0 Z " fill="#3A0291" transform="translate(1435,970)"/>
</svg>
